<svg width="104" height="40" viewBox="0 0 104 40" fill="none" xmlns="http://www.w3.org/2000/svg">
<circle cx="20" cy="20" r="20" fill="#9C0389"/>
<circle cx="20" cy="19.9996" r="18.6364" fill="#BC03A4"/>
<g filter="url(#filter0_d_3_142)">
<path fill-rule="evenodd" clip-rule="evenodd" d="M16.9225 14.9386L21.9504 14.4068C21.9477 14.3479 21.9433 14.2885 21.937 14.2287C21.7741 12.6885 20.4588 11.6915 19.1359 11.8314C17.8131 11.9713 16.7355 13.2215 16.8984 14.7616C16.9047 14.8214 16.9128 14.8805 16.9225 14.9386ZM15.1211 15.1292C15.1126 15.0705 15.1052 15.0114 15.0989 14.9519C14.8396 12.5001 16.5629 10.3079 18.9481 10.0556C21.3333 9.80332 23.4771 11.5864 23.7364 14.0383C23.7427 14.0978 23.7479 14.1571 23.7518 14.2163L26.9943 13.8733L28.234 25.5936C28.4415 27.5551 26.9984 29.3157 25.0107 29.5259L17.093 30.3634C15.1053 30.5737 13.3258 29.154 13.1183 27.1925L11.8786 15.4721L15.1211 15.1292Z" fill="white"/>
</g>
<g filter="url(#filter1_i_3_142)">
<path d="M17.7165 17.4266C17.763 17.866 17.4445 18.2599 17.0051 18.3064C16.5657 18.3528 16.1719 18.0343 16.1254 17.5949C16.0789 17.1556 16.3974 16.7617 16.8368 16.7152C17.2762 16.6688 17.6701 16.9873 17.7165 17.4266Z" fill="#BC03A4"/>
<path d="M23.2855 16.8374C23.332 17.2768 23.0135 17.6706 22.5741 17.7171C22.1347 17.7636 21.7409 17.4451 21.6944 17.0057C21.6479 16.5663 21.9664 16.1725 22.4058 16.126C22.8452 16.0795 23.239 16.398 23.2855 16.8374Z" fill="#BC03A4"/>
</g>
<path d="M8.27598 33.1813C8.2623 33.1674 8.25317 33.1564 8.24864 33.1485C8.25773 33.1594 8.26684 33.1704 8.27598 33.1813C8.74568 33.6584 14.5788 37.5627 23.8219 37.3288C21.5707 38.6286 12.6748 38.4329 8.27598 33.1813Z" fill="white" fill-opacity="0.4"/>
<circle cx="83.3621" cy="20" r="20" fill="#DB6100"/>
<circle cx="83.362" cy="19.9996" r="18.6364" fill="#FF7900"/>
<path d="M98.4469 28.0174C98.4369 28.0342 98.4286 28.0458 98.4221 28.0522C98.4304 28.0406 98.4387 28.029 98.4469 28.0174C98.7892 27.442 101.085 20.809 98.513 11.9279C100.342 13.7755 102.41 22.4298 98.4469 28.0174Z" fill="white" fill-opacity="0.4"/>
<g filter="url(#filter2_d_3_142)">
<path d="M82.1727 15.2102C82.1727 17.2085 80.5527 18.8285 78.5543 18.8285C76.556 18.8285 74.936 17.2085 74.936 15.2102C74.936 13.2118 76.556 11.5918 78.5543 11.5918C80.5527 11.5918 82.1727 13.2118 82.1727 15.2102Z" fill="white"/>
</g>
<g filter="url(#filter3_d_3_142)">
<path d="M91.788 24.7902C91.788 26.7886 90.168 28.4086 88.1696 28.4086C86.1713 28.4086 84.5513 26.7886 84.5513 24.7902C84.5513 22.7919 86.1713 21.1719 88.1696 21.1719C90.168 21.1719 91.788 22.7919 91.788 24.7902Z" fill="white"/>
</g>
<g filter="url(#filter4_d_3_142)">
<path d="M77.1867 26.0558C76.641 25.5063 76.644 24.6184 77.1935 24.0726L87.5515 13.7854C88.101 13.2396 88.9889 13.2427 89.5346 13.7922C90.0804 14.3417 90.0773 15.2296 89.5278 15.7753L79.1699 26.0626C78.6204 26.6083 77.7325 26.6053 77.1867 26.0558Z" fill="white"/>
</g>
<path d="M72.5 20C72.5 31.0457 63.5457 40 52.5 40C41.4543 40 32.5 31.0457 32.5 20C32.5 8.9543 41.4543 0 52.5 0C63.5457 0 72.5 8.9543 72.5 20Z" fill="#F0A200"/>
<path d="M71.1363 20.0003C71.1363 30.2929 62.7925 38.6367 52.4999 38.6367C42.2073 38.6367 33.8635 30.2929 33.8635 20.0003C33.8635 9.70774 42.2073 1.36395 52.4999 1.36395C62.7925 1.36395 71.1363 9.70774 71.1363 20.0003Z" fill="#FFC900"/>
<path d="M52.9092 2.75349C52.9287 2.75451 52.9428 2.75645 52.9515 2.75922C52.9374 2.75728 52.9233 2.75537 52.9092 2.75349C52.2406 2.71836 45.3012 3.77376 38.6382 10.1842C39.4222 7.70578 46.119 1.8467 52.9092 2.75349Z" fill="white" fill-opacity="0.4"/>
<g filter="url(#filter5_d_3_142)">
<path d="M47.0097 17.4512C47.0097 19.0756 46.044 20.3924 44.8528 20.3924C43.6616 20.3924 42.696 19.0756 42.696 17.4512C42.696 15.8269 43.6616 14.5101 44.8528 14.5101C46.044 14.5101 47.0097 15.8269 47.0097 17.4512Z" fill="white"/>
</g>
<g filter="url(#filter6_d_3_142)">
<path d="M61.9118 17.4512C61.9118 19.0756 60.9461 20.3924 59.7549 20.3924C58.5637 20.3924 57.5981 19.0756 57.5981 17.4512C57.5981 15.8269 58.5637 14.5101 59.7549 14.5101C60.9461 14.5101 61.9118 15.8269 61.9118 17.4512Z" fill="white"/>
</g>
<g filter="url(#filter7_d_3_142)">
<path d="M59.8384 24.1806C58.9478 26.1569 52.8671 38.4144 44.8262 24.2241C44.7526 24.0941 44.8403 23.922 44.9898 23.922H59.6591C59.7984 23.922 59.8957 24.0536 59.8384 24.1806Z" fill="white"/>
</g>
<defs>
<filter id="filter0_d_3_142" x="4.8786" y="9.0318" width="24.3752" height="28.3522" filterUnits="userSpaceOnUse" color-interpolation-filters="sRGB">
<feFlood flood-opacity="0" result="BackgroundImageFix"/>
<feColorMatrix in="SourceAlpha" type="matrix" values="0 0 0 0 0 0 0 0 0 0 0 0 0 0 0 0 0 0 127 0" result="hardAlpha"/>
<feOffset dx="-3" dy="3"/>
<feGaussianBlur stdDeviation="2"/>
<feComposite in2="hardAlpha" operator="out"/>
<feColorMatrix type="matrix" values="0 0 0 0 0.437355 0 0 0 0 0 0 0 0 0 0.383043 0 0 0 0.67 0"/>
<feBlend mode="normal" in2="BackgroundImageFix" result="effect1_dropShadow_3_142"/>
<feBlend mode="normal" in="SourceGraphic" in2="effect1_dropShadow_3_142" result="shape"/>
</filter>
<filter id="filter1_i_3_142" x="16.1209" y="16.1215" width="7.16907" height="2.18939" filterUnits="userSpaceOnUse" color-interpolation-filters="sRGB">
<feFlood flood-opacity="0" result="BackgroundImageFix"/>
<feBlend mode="normal" in="SourceGraphic" in2="BackgroundImageFix" result="shape"/>
<feColorMatrix in="SourceAlpha" type="matrix" values="0 0 0 0 0 0 0 0 0 0 0 0 0 0 0 0 0 0 127 0" result="hardAlpha"/>
<feOffset/>
<feGaussianBlur stdDeviation="2"/>
<feComposite in2="hardAlpha" operator="arithmetic" k2="-1" k3="1"/>
<feColorMatrix type="matrix" values="0 0 0 0 0 0 0 0 0 0 0 0 0 0 0 0 0 0 0.49 0"/>
<feBlend mode="normal" in2="shape" result="effect1_innerShadow_3_142"/>
</filter>
<filter id="filter2_d_3_142" x="74.936" y="11.5918" width="7.83676" height="9.23676" filterUnits="userSpaceOnUse" color-interpolation-filters="sRGB">
<feFlood flood-opacity="0" result="BackgroundImageFix"/>
<feColorMatrix in="SourceAlpha" type="matrix" values="0 0 0 0 0 0 0 0 0 0 0 0 0 0 0 0 0 0 127 0" result="hardAlpha"/>
<feOffset dx="0.6" dy="2"/>
<feComposite in2="hardAlpha" operator="out"/>
<feColorMatrix type="matrix" values="0 0 0 0 0.854902 0 0 0 0 0.384314 0 0 0 0 0 0 0 0 0.59 0"/>
<feBlend mode="normal" in2="BackgroundImageFix" result="effect1_dropShadow_3_142"/>
<feBlend mode="normal" in="SourceGraphic" in2="effect1_dropShadow_3_142" result="shape"/>
</filter>
<filter id="filter3_d_3_142" x="84.5513" y="21.1719" width="7.83676" height="9.23676" filterUnits="userSpaceOnUse" color-interpolation-filters="sRGB">
<feFlood flood-opacity="0" result="BackgroundImageFix"/>
<feColorMatrix in="SourceAlpha" type="matrix" values="0 0 0 0 0 0 0 0 0 0 0 0 0 0 0 0 0 0 127 0" result="hardAlpha"/>
<feOffset dx="0.6" dy="2"/>
<feComposite in2="hardAlpha" operator="out"/>
<feColorMatrix type="matrix" values="0 0 0 0 0.854902 0 0 0 0 0.384314 0 0 0 0 0 0 0 0 0.59 0"/>
<feBlend mode="normal" in2="BackgroundImageFix" result="effect1_dropShadow_3_142"/>
<feBlend mode="normal" in="SourceGraphic" in2="effect1_dropShadow_3_142" result="shape"/>
</filter>
<filter id="filter4_d_3_142" x="76.7794" y="13.3781" width="13.7625" height="15.0919" filterUnits="userSpaceOnUse" color-interpolation-filters="sRGB">
<feFlood flood-opacity="0" result="BackgroundImageFix"/>
<feColorMatrix in="SourceAlpha" type="matrix" values="0 0 0 0 0 0 0 0 0 0 0 0 0 0 0 0 0 0 127 0" result="hardAlpha"/>
<feOffset dx="0.6" dy="2"/>
<feComposite in2="hardAlpha" operator="out"/>
<feColorMatrix type="matrix" values="0 0 0 0 0.854902 0 0 0 0 0.384314 0 0 0 0 0 0 0 0 0.59 0"/>
<feBlend mode="normal" in2="BackgroundImageFix" result="effect1_dropShadow_3_142"/>
<feBlend mode="normal" in="SourceGraphic" in2="effect1_dropShadow_3_142" result="shape"/>
</filter>
<filter id="filter5_d_3_142" x="42.696" y="14.5101" width="4.81372" height="6.28232" filterUnits="userSpaceOnUse" color-interpolation-filters="sRGB">
<feFlood flood-opacity="0" result="BackgroundImageFix"/>
<feColorMatrix in="SourceAlpha" type="matrix" values="0 0 0 0 0 0 0 0 0 0 0 0 0 0 0 0 0 0 127 0" result="hardAlpha"/>
<feOffset dx="0.5" dy="0.4"/>
<feComposite in2="hardAlpha" operator="out"/>
<feColorMatrix type="matrix" values="0 0 0 0 0.941176 0 0 0 0 0.635294 0 0 0 0 0 0 0 0 0.41 0"/>
<feBlend mode="normal" in2="BackgroundImageFix" result="effect1_dropShadow_3_142"/>
<feBlend mode="normal" in="SourceGraphic" in2="effect1_dropShadow_3_142" result="shape"/>
</filter>
<filter id="filter6_d_3_142" x="57.5981" y="14.5101" width="4.81372" height="6.28232" filterUnits="userSpaceOnUse" color-interpolation-filters="sRGB">
<feFlood flood-opacity="0" result="BackgroundImageFix"/>
<feColorMatrix in="SourceAlpha" type="matrix" values="0 0 0 0 0 0 0 0 0 0 0 0 0 0 0 0 0 0 127 0" result="hardAlpha"/>
<feOffset dx="0.5" dy="0.4"/>
<feComposite in2="hardAlpha" operator="out"/>
<feColorMatrix type="matrix" values="0 0 0 0 0.941176 0 0 0 0 0.635294 0 0 0 0 0 0 0 0 0.41 0"/>
<feBlend mode="normal" in2="BackgroundImageFix" result="effect1_dropShadow_3_142"/>
<feBlend mode="normal" in="SourceGraphic" in2="effect1_dropShadow_3_142" result="shape"/>
</filter>
<filter id="filter7_d_3_142" x="44.7997" y="23.922" width="15.5554" height="7.45884" filterUnits="userSpaceOnUse" color-interpolation-filters="sRGB">
<feFlood flood-opacity="0" result="BackgroundImageFix"/>
<feColorMatrix in="SourceAlpha" type="matrix" values="0 0 0 0 0 0 0 0 0 0 0 0 0 0 0 0 0 0 127 0" result="hardAlpha"/>
<feOffset dx="0.5" dy="0.4"/>
<feComposite in2="hardAlpha" operator="out"/>
<feColorMatrix type="matrix" values="0 0 0 0 0.941176 0 0 0 0 0.635294 0 0 0 0 0 0 0 0 0.41 0"/>
<feBlend mode="normal" in2="BackgroundImageFix" result="effect1_dropShadow_3_142"/>
<feBlend mode="normal" in="SourceGraphic" in2="effect1_dropShadow_3_142" result="shape"/>
</filter>
</defs>
</svg>
