<svg width="208" height="15" viewBox="0 0 208 15" fill="none" xmlns="http://www.w3.org/2000/svg">
<g clip-path="url(#clip0_3_239)">
<path d="M176.668 3.84144C176.686 3.82735 176.698 3.80563 176.705 3.78368C176.674 3.8047 176.668 3.82665 176.668 3.84144Z" fill="#003383"/>
<path d="M160.579 3.53397L160.765 3.50611C160.705 3.50394 160.639 3.51539 160.579 3.53397Z" fill="#003383"/>
<path d="M186.308 4.01012C186.302 4.01521 186.29 4.01488 186.284 4.01997L186.964 4.03889L186.308 4.01012Z" fill="#003383"/>
<path d="M126.262 3.66304L126.477 3.65763C126.405 3.66151 126.334 3.65916 126.262 3.66304Z" fill="#003383"/>
<path d="M146.598 3.5795C146.508 3.60396 146.419 3.61457 146.323 3.61802C146.419 3.63535 146.514 3.61804 146.598 3.5795Z" fill="#003383"/>
<path d="M191.398 5.38183L191.124 5.28632C191.123 5.32896 191.225 5.36827 191.398 5.38183Z" fill="#003383"/>
<path d="M201.169 5.12642C201.163 5.11888 201.151 5.11111 201.145 5.10357C201.133 5.11774 201.145 5.1255 201.169 5.12642Z" fill="#003383"/>
<path d="M197.355 4.72771C197.272 4.73154 197.176 4.74174 197.08 4.75876C197.194 4.756 197.343 4.76134 197.355 4.72771Z" fill="#003383"/>
<path d="M196.949 4.78045L197.08 4.76466C197.009 4.76209 196.949 4.76678 196.949 4.78045Z" fill="#003383"/>
<path d="M1.69453 9.10727C1.40155 9.13157 1.1083 9.19091 0.826765 9.27874L1.69453 9.10727Z" fill="#003383"/>
<path d="M95.1991 4.47566L95.2592 4.44164C95.1993 4.44663 95.1872 4.46069 95.1991 4.47566Z" fill="#003383"/>
<path d="M1.36737 9.9111L1.15851 9.91051C1.22414 9.91248 1.29572 9.91462 1.36737 9.9111Z" fill="#003383"/>
<path d="M186.221 5.60424C185.94 5.67962 185.362 5.57469 185.367 5.65338C185.659 5.64382 186.083 5.71071 186.221 5.60424Z" fill="#003383"/>
<path d="M88.7007 8.0262L88.5156 8.03272C88.6052 8.02936 88.6589 8.03116 88.7007 8.0262Z" fill="#003383"/>
<path d="M1.36734 9.90566L1.61221 9.90762C1.58844 9.89302 1.56467 9.87841 1.53487 9.87047C1.47499 9.88893 1.42114 9.90073 1.36734 9.90566Z" fill="#003383"/>
<path d="M62.8552 5.60323L62.8671 5.60367L62.933 5.58491L62.8552 5.60323Z" fill="#003383"/>
<path d="M61.1378 5.51787L61.5023 5.48359C61.377 5.47915 61.2575 5.48841 61.1378 5.51787Z" fill="#003383"/>
<path d="M0.826789 9.29975L0.341955 9.40142C0.503474 9.37925 0.665104 9.34301 0.826789 9.29975Z" fill="#003383"/>
<path d="M42.6518 6.43525L42.8191 6.42104C42.7654 6.41915 42.7056 6.42375 42.6518 6.43525Z" fill="#003383"/>
<path d="M147.905 3.60223L148.054 3.62122C148.072 3.60139 148.06 3.58732 147.905 3.60223Z" fill="#003383"/>
<path d="M135.83 6.0626C135.597 6.05413 135.37 6.08747 135.148 6.16955C135.381 6.17109 135.615 6.13796 135.83 6.0626Z" fill="#003383"/>
<path d="M133.687 6.1637L133.77 6.17295C133.74 6.17194 133.716 6.16471 133.687 6.1637Z" fill="#003383"/>
<path d="M147.411 6.09714L147.412 6.08977C147.406 6.08954 147.405 6.09691 147.405 6.09691L147.411 6.09714Z" fill="#003383"/>
<path d="M144.696 6.15145C144.636 6.13575 144.571 6.11983 144.505 6.11749C144.571 6.14019 144.63 6.14911 144.696 6.15145Z" fill="#003383"/>
<path d="M126.926 6.56535L126.915 6.55768L126.926 6.56535Z" fill="#003383"/>
<path d="M101.332 7.75548C103.9 7.6812 107.226 7.51752 109.78 7.53819C110.492 7.40559 111.22 7.3391 111.949 7.33814L112.042 7.53179L112.717 7.46361C112.991 7.5199 112.198 7.50092 112.687 7.56991L112.938 7.44671C112.992 7.51394 114.681 7.47763 113.546 7.6267L116.178 7.60809C116.763 7.60859 116.514 7.44582 117.158 7.4899C117.289 7.54764 116.931 7.53043 116.984 7.59766C118.923 7.72412 119.208 7.20865 121.01 7.28314L120.854 7.30806C121.159 7.25208 121.744 7.25854 121.75 7.22894C121.513 7.03675 121.427 7.33201 120.879 7.2254C120.922 7.05989 121.56 7.13357 121.52 7.00715C121.866 7.02994 122.212 7.01102 122.559 6.96232C123.19 7.0656 124.086 6.98648 124.563 7.11468C124.988 6.99096 125.424 6.91528 125.866 6.8934C126.342 7.0216 125.757 7.01514 126.402 7.06518L126.504 6.97304C127.029 6.98358 126.951 7.01094 126.933 7.05804C127.321 6.99873 127.716 6.97535 128.109 6.98773L127.715 7.0826C128.24 7.04547 128.449 7.05799 129.183 7.06914C129.171 7.12238 128.878 7.11915 128.663 7.10645C129.062 7.24412 129.338 7.04422 129.553 7.05693C129.494 7.01335 128.987 6.99741 129.232 6.90382C129.596 6.92121 129.997 6.77291 130.259 6.88245L129.864 6.97731C130.277 6.88897 130.707 6.86076 131.13 6.89194C131.083 6.8964 131.106 6.92098 131.088 6.94425C131.775 6.87645 132.474 6.87455 133.165 6.938L133.01 6.96292C133.339 6.93152 133.512 6.84759 133.691 6.85322C133.226 6.79689 133.352 6.77104 133.311 6.68036C133.924 6.8367 134.238 6.49494 135.24 6.58601C135.227 6.63926 134.988 6.70921 134.708 6.65274C134.42 6.85822 134.084 6.9907 133.726 7.02712C134.102 6.99127 134.55 6.96362 134.454 7.03212L134.569 6.88078C134.795 6.87599 134.98 6.88776 135.153 6.88128C135.25 6.78895 134.689 6.72962 135.215 6.66271C135.813 6.60997 135.536 6.81582 135.626 6.74714C136.451 6.68365 135.962 6.58487 136.755 6.63363C136.66 6.65446 136.558 6.66319 136.457 6.66C137.023 6.71952 137.854 6.62642 138.019 6.81041C137.929 6.87909 137.815 6.91127 137.708 6.89002L137.714 6.86042C137.092 6.99583 138.234 6.82311 138.041 6.98989C137.994 6.89307 138.794 6.91819 139.152 6.9354L139.034 6.82441C140.225 6.49829 138.972 7.04297 140.154 7.00264C140.907 6.93094 139.868 6.96981 140.328 6.89488C140.805 6.95754 141.288 6.98464 141.772 6.97004C141.981 7.01235 142.404 7.07332 142.444 7.19974C142.987 7.21681 143.531 7.19812 144.074 7.13773C143.299 7.02995 143.309 7.26863 142.403 7.10311L142.655 6.98587C143.282 6.99364 144.076 6.93516 144.512 6.97864C144.422 6.952 144.387 6.92108 144.441 6.89894C145.104 6.81847 145.779 6.77412 146.453 6.77147C146.572 6.88246 146.065 6.86057 145.694 6.87277C146.177 6.91775 146.661 6.93293 147.144 6.91833C147.191 7.01516 146.559 6.91187 146.463 7.0042L147.424 6.97481C147.418 6.98058 147.424 6.98672 147.424 6.99268C147.563 6.83017 148.158 7.00978 148.744 6.96262C149.549 6.95814 150.344 6.84604 151.11 6.61981C151.319 6.66212 151.378 6.7057 151.294 6.74478C150.955 6.67452 151.014 6.73001 150.894 6.76797C151.366 6.75299 151.925 6.93147 151.662 6.99472C152.409 6.94666 151.394 6.90883 151.848 6.85754L152.869 6.87173C152.744 6.79034 152.386 6.76718 152.912 6.70622C153.36 6.68454 153.575 6.7032 154.154 6.70947C154.07 6.74855 154.338 6.83444 153.902 6.82671C154.2 6.87183 154.504 6.85756 154.792 6.78315C154.154 6.70351 155.837 6.71468 155.36 6.58648L155.998 6.66612C155.855 6.66162 155.837 6.72064 155.622 6.70197C155.806 6.82694 156.142 6.67062 156.363 6.65968C156.649 6.66868 156.935 6.70151 157.221 6.75222C157.484 6.71876 157.753 6.73911 158.008 6.81271C158.307 6.7923 158.033 6.73005 158.117 6.69097L159.138 6.71112C159.191 6.7843 159.278 6.9718 159.129 6.9969C159.511 6.93741 159.262 6.7925 159.847 6.80492C159.517 6.93759 160.616 6.91251 160.137 7.07029C160.739 7.16668 161.347 7.19176 161.945 7.14497C162.268 7.0419 161.378 7.0795 161.409 6.97319C162.884 6.94801 162.97 6.64679 164.05 6.70455L163.77 6.67191C164.104 6.66453 164.439 6.62141 164.762 6.54217C164.575 6.67339 165.534 6.91209 166.639 6.89316C166.729 6.82448 166.019 6.76046 166.199 6.65289L166.933 6.6402C166.987 6.65381 166.903 6.67501 166.814 6.69007C167.471 6.64516 168.041 6.87764 168.234 6.71682L168.906 6.9227L168.639 6.83681C168.962 6.77544 169.29 6.74405 169.624 6.73071C170.103 6.66826 170.592 6.69555 171.068 6.81183C170.937 6.75409 170.61 6.62462 171.201 6.60743C171.199 6.82787 172.448 6.70024 172.429 6.81287C172.668 6.81441 173.097 6.88749 173.122 6.79887L173.084 6.93478C173.14 6.74581 174.011 6.76723 174.68 6.74056C174.528 6.99802 175.414 6.73384 175.716 6.96979C175.843 6.795 176.905 6.91774 177.019 6.77235C177.533 6.7706 177.483 6.93592 177.614 6.99367L177.854 6.92967C178.115 7.01537 179.082 7.03979 179.66 7.10563L180.193 6.9555L180.389 7.02722C180.473 6.98814 180.921 6.97242 180.641 6.90998L180.927 6.92494C180.953 6.75887 181.334 6.88407 181.913 6.81885C182.05 6.84699 182.014 6.88757 181.889 6.90746C182.175 6.91646 182.055 6.99612 182.216 7.0548C182.007 7.00654 183.257 6.7657 182.476 6.67561C182.423 6.60839 182.877 6.56306 183.163 6.59589L183.335 6.75027L183.676 6.59414C184.01 6.60464 184.344 6.64492 184.672 6.7029C184.302 6.70915 183.852 6.98106 184.807 6.99318C184.466 7.01229 184.132 7.04945 183.803 7.11659C183.999 7.12873 184.101 7.14384 183.79 7.19962C184.536 7.16348 184.041 7.11217 184.776 7.09949C184.733 7.2352 184.941 7.28347 185.585 7.33946L185.103 7.23491C185.133 7.21797 185.163 7.207 185.193 7.19602C185.008 7.17829 184.96 7.15296 184.919 7.10399C185.062 7.10848 185.774 6.9461 185.892 7.03326C185.148 6.80726 187.183 6.88907 186.713 6.7551C186.928 6.70823 187.155 6.72131 187.363 6.78745C186.747 6.88134 187.827 6.95102 187.725 7.04316C187.952 7.00858 187.242 6.93265 187.547 6.88859C187.834 6.89759 188.114 6.93619 188.388 7.0163L188.232 7.04122L188.799 7.11265C188.889 7.04397 188.251 6.9822 188.77 6.96277C188.907 6.99687 189.433 6.97166 189.414 7.02472C189.163 7.11217 189.346 7.2431 188.899 7.25287C189.269 7.25257 190.444 7.26568 189.968 7.12556L190.41 7.13944C190.136 7.07719 189.361 6.95154 190.244 6.95545L190.238 6.99101L190.854 6.90308L191.122 6.98301C191.116 6.94708 191.212 6.92029 191.438 6.92742C191.498 6.97099 191.712 6.98966 191.694 7.04272C192.356 7.05161 192.303 6.97843 192.387 6.94531C192.757 6.94502 192.894 6.97316 192.721 7.05113C193.299 7.0574 193.878 7.09942 194.456 7.16527C195.137 7.1211 194.319 7.13117 194.714 7.04822C195.297 7.29894 196.951 7.19597 198.055 7.18895C197.753 6.97087 198.36 7.17468 198.559 6.98426C198.319 7.0423 199.607 7.17216 198.64 7.20732L199.231 7.20205C199.636 7.328 198.252 7.26663 198.865 7.43489C199.486 7.3531 200.113 7.31321 200.74 7.32098C200.476 7.46168 201.343 7.2863 201.145 7.44097C200.947 7.47649 200.75 7.48817 200.548 7.47584L200.685 7.50994C202.134 7.58529 201.104 7.34433 201.869 7.26109C202.752 7.265 202.566 7.39622 202.619 7.46345C202.893 7.48994 203.162 7.48646 203.437 7.44743C202.899 7.52588 202.441 7.33271 202.687 7.24507C203.199 7.36247 203.73 7.35533 204.239 7.22828C202.975 7.02171 203.361 7.20072 202.182 6.97891C202.02 7.02746 202.043 7.17716 201.333 7.10123C201.781 7.03784 201.304 7.01688 201.179 6.98911C201.315 7.07683 200.683 7.01526 200.468 7.04425C200.272 6.96657 200.894 6.855 200.172 6.80253L200.033 7.00674C199.753 6.96814 200.153 6.86154 199.55 6.89623C199.874 6.79911 199.45 6.72622 200.268 6.71616C199.297 6.51878 198.781 6.77672 198.023 6.83036C198.101 6.82088 198.107 6.79128 198.185 6.7818C197.963 6.82253 197.736 6.83923 197.51 6.82615C197.015 6.76889 197.904 6.7432 197.774 6.68546L196.968 6.67206C196.95 6.66554 196.95 6.65958 196.95 6.65958C196.789 6.69623 196.622 6.69098 196.461 6.64421C196.7 6.58617 196.796 6.51768 196.958 6.46912L196.115 6.59163C196.205 6.52891 195.418 6.4565 196.021 6.42181L194.768 6.41819L194.662 6.27778C194.363 6.2982 194.351 6.32166 194.715 6.34501C194.285 6.30172 192.815 6.54157 193.044 6.27464C192.059 6.36286 191.707 6.3101 190.519 6.35024C191.433 6.24785 189.47 6.16234 190.437 6.12718C190.055 6.10922 189.673 6.13297 189.302 6.21071C188.885 6.14397 189.071 6.01275 189.525 5.97338L188.994 6.02223L189.006 5.99281L188.546 6.06179C188.057 5.98088 188.446 5.92157 187.938 5.89372L187.83 6.01546L187.484 5.93905C187.615 5.99679 187.311 6.01702 186.946 6.02346L186.953 5.99386L186.505 6.00958C186.947 5.94005 186.099 5.97896 186.297 5.88982C185.915 5.87783 185.909 5.87764 185.217 5.89164L185.335 5.9788C184.433 6.03985 185.295 5.85237 184.567 5.83545L184.614 5.93228C183.565 5.7563 182.834 5.99557 182.053 5.88164C182.501 5.86591 182.383 5.75492 182.377 5.77856C181.708 5.80523 180.616 5.759 179.929 5.86852C179.614 5.6858 179.257 5.5971 178.904 5.60987C178.391 5.61162 178.313 5.6211 178.146 5.69926C177.656 5.70772 177.167 5.67447 176.678 5.60548C176.564 5.68533 176.225 5.57931 175.956 5.64833L175.896 5.60475L175.943 5.70157C175.056 5.47107 174.444 5.7975 173.545 5.60238L173.7 5.57746L173.324 5.60735C173.264 5.56378 173.414 5.53867 173.432 5.48562L171.678 5.44241L172.023 5.51882C171.683 5.56771 171.33 5.57453 170.984 5.55174C171.684 5.41281 170.4 5.53932 170.287 5.42852L170.664 5.39267C170.15 5.39442 170.15 5.39442 170.191 5.49105C169.522 5.51772 169.733 5.30384 169.118 5.40369L169.559 5.4116C169.69 5.46935 169.373 5.54282 169.081 5.53959C169.009 5.52543 168.807 5.47735 169.027 5.46641C168.502 5.49758 167.715 5.44304 167.481 5.47743C167.195 5.4446 167.291 5.37611 167.441 5.35101C166.318 5.42896 166.934 5.32911 165.811 5.40111L165.829 5.34805L165.429 5.43081L164.875 5.31209L165.071 5.38382C164.731 5.40888 164.384 5.40992 164.044 5.39327L164.218 5.3153C163.179 5.35417 163.014 5.17019 162.028 5.27629C161.962 5.26231 162.112 5.23721 162.19 5.22177C161.275 5.34203 161.493 5.06876 160.578 5.21881C160.632 5.19071 160.531 5.15773 160.567 5.13503L160.149 5.18148L160.179 5.07518L159.838 5.23131L159.576 5.12178L159.415 5.17034C158.969 4.95967 158.335 5.11257 157.722 4.95028L157.828 5.09068C156.285 5.35807 154.29 4.90205 152.42 5.03402L152.451 4.92772L151.68 5.05248C151.263 4.96786 151.926 4.95888 151.795 4.90114C150.971 4.95867 151.453 5.06323 150.498 5.09281C150.009 5.01786 150.666 5.01465 150.899 4.9743C149.949 5.04577 148.994 5.06344 148.04 5.02152C148.027 5.03306 147.985 5.05558 148.021 5.06267C147.424 5.10945 146.631 5.06069 145.968 5.06371C145.98 5.01642 146.148 5.0038 146.309 4.99694C146.052 4.97101 145.796 4.97486 145.545 5.00273L145.79 4.90914C145.259 4.94607 144.722 4.9292 144.191 4.85889C144.25 4.90247 144.232 4.98532 143.79 4.9774C143.547 4.80886 142.596 5.04715 141.892 4.95353C141.976 4.91445 142.49 4.90674 142.346 4.90224C142.018 4.88002 141.69 4.91141 141.367 4.9847L141.463 4.9162L139.827 5.00782C139.584 4.83927 138.281 5.03076 138.389 4.90902C137.804 4.90256 138.884 4.98416 138.144 5.00261C137.947 4.93089 137.475 5.04119 137.506 4.92893L137.583 4.9135L137.064 4.92102L137.387 4.81198C136.945 4.83386 136.616 4.9427 136.597 5.02555C136.192 5.01876 135.786 4.98814 135.381 4.92177L135.536 4.89685C134.354 4.94314 133.569 4.60859 132.642 4.79401C132.571 4.77984 132.583 4.75043 132.726 4.75493L131.992 4.7557L132.166 4.67177L130.959 4.80072L130.971 4.74747C130.172 4.72831 128.924 4.76062 127.891 4.7818L128.047 4.75689C126.924 4.84676 126.961 4.71085 126.143 4.76858C126.167 4.75741 126.196 4.74643 126.226 4.74737L125.486 4.75391L125.648 4.6994C125.236 4.72221 124.83 4.7035 124.419 4.64886C124.102 4.68063 123.791 4.74237 123.492 4.83428C122.686 4.84472 123.295 4.76256 122.794 4.72298C122.305 4.76122 121.815 4.77564 121.32 4.76604L121.332 4.71279C120.962 4.725 120.735 4.76554 120.221 4.77325L120.377 4.74833C119.54 4.87103 119.328 4.59618 118.675 4.83789C118.323 4.79704 117.654 4.83562 117.685 4.72335C116.64 4.80374 115.828 4.83782 114.795 4.89476C114.623 4.71654 114.574 4.90569 113.942 4.80837L113.989 4.90519C112.52 4.93057 110.827 4.70455 109.209 4.75502L109.162 4.6582L108.839 4.76723C107.097 4.73632 104.841 4.71311 103.45 4.72305C102.834 4.82289 102.213 4.87489 101.586 4.87308L101.664 4.85764C100.41 4.92551 99.0781 4.98498 97.7057 4.94186C97.7897 4.90278 97.6526 4.87464 97.8022 4.84358C97.4375 4.90364 97.0674 4.90989 96.7038 4.85675L97.0493 4.9272C96.6666 4.99861 96.2729 4.98028 95.8979 4.87314L95.282 4.9849C95.2403 4.97763 95.1748 4.96366 95.169 4.94559L95.0611 4.99584L94.728 4.87214C94.3159 4.89495 93.9094 4.95966 93.5085 5.06625C93.4493 5.02267 92.8705 4.99853 93.3184 4.97088L91.0623 4.95959L91.4141 5.00045C91.461 5.09727 90.7859 5.16545 90.4341 5.1246C90.8885 5.04352 90.4652 4.98851 90.2689 4.91679C89.964 4.97276 90.5367 4.99672 90.381 5.05142C89.9208 5.12635 89.449 5.14729 88.9777 5.12056L89.2049 5.08002C88.6852 5.12329 88.4361 4.95456 87.9227 4.96822C87.4623 5.04911 87.1168 4.98462 87.2167 5.14866C86.5478 5.1932 86.9551 5.03913 86.7403 5.02642C86.286 5.10154 85.8206 5.08692 85.3679 4.98926C85.0074 5.24016 83.5599 4.9265 83.4327 5.13108L82.8786 5.02428C82.8661 5.07752 82.7575 5.20522 82.3156 5.23305C81.8923 5.17804 81.9887 5.07975 81.8638 5.02816L81.5874 5.23401C79.1598 5.05047 75.9766 5.24247 73.3159 5.09928C72.1336 5.15748 70.6462 5.27762 69.2675 5.27005L69.417 5.239L68.0445 5.20779L69.0466 5.28099C68.7479 5.30736 68.5147 5.35367 68.2281 5.35659C66.4324 5.26441 64.6417 5.26774 62.8502 5.3664C61.66 5.62103 62.0462 5.17428 60.8984 5.36468C60.9941 5.34384 61.0302 5.30922 61.12 5.28224C59.8836 5.38047 59.2146 5.43096 57.9776 5.58876C58.1111 5.35457 57.1717 5.60515 57.2743 5.48323L57.1719 5.58132C56.8918 5.53081 56.2413 5.52229 56.3315 5.45361L55.7871 5.57953L55.7343 5.48252C55.0061 5.48944 53.4532 5.60155 53.061 5.41045C51.2687 5.59251 48.4274 5.60455 46.1712 5.61114C45.681 5.69109 45.1852 5.73511 44.6838 5.73127L44.1297 5.62447C43.6155 5.72155 43.0958 5.77077 42.5706 5.76619C42.5707 5.75427 42.5947 5.74311 42.6246 5.73809C42.1113 5.72792 41.5977 5.76542 41.0896 5.83885C40.5046 5.84431 39.9381 5.79671 40.1122 5.68895C40.0626 5.8781 38.8766 5.69184 38.8766 5.69184C38.8766 5.69184 31.4032 5.74905 23.015 5.97418C14.6207 6.20508 5.32359 6.61023 1.69431 7.2769C1.41877 7.38148 0.671665 7.48911 0.981168 7.58227C0.413466 7.65383 0.104409 7.51301 0.0139559 7.61148C0.807735 7.61854 -0.149551 7.8626 0.625769 7.92868L0.159673 7.98555C0.0814328 8.0546 0.775501 7.87379 0.690792 7.99628L0.787993 7.81458C1.03883 7.79863 1.28922 7.83033 1.53331 7.8976C1.95306 7.69028 2.42546 7.59785 2.90254 7.64264L2.67557 7.65935C3.33841 7.62654 3.08646 7.76165 3.2295 7.78402L3.08027 7.78529L3.64663 7.85672C3.22326 7.81362 2.5293 7.98253 2.89362 7.95822C3.68729 7.97719 2.68505 7.92186 3.27634 7.88085C3.64663 7.85672 3.54425 7.95482 3.53176 8.01402L4.18863 7.98103C4.16995 8.06387 3.75281 7.99117 4.02668 8.06533L4.85147 7.94822C5.0167 8.15007 5.74802 7.81548 6.14023 8.00063C5.54275 8.06529 6.19928 8.06804 6.10314 8.13653L7.56601 8.08118C7.70308 8.10337 7.18328 8.15855 7.40428 8.14165C7.60711 8.15399 7.81026 8.13057 8.00182 8.07104C8.13265 8.12282 9.09445 8.03385 9.06328 8.1759C10.0595 8.237 9.47093 7.98609 10.4016 8.03916C10.5261 8.12055 9.667 8.08164 10.0841 8.15434L11.0517 8.08939C10.8955 8.19175 10.7041 8.23937 10.5133 8.22146C13.1154 8.24958 14.5381 8.65781 16.9034 8.48183C17.2428 8.56997 16.6639 8.55774 16.4305 8.62788C18.1452 8.44933 18.8583 8.78163 20.3212 8.72628L20.3458 8.64362C22.3972 8.84515 24.8463 8.63604 27.1618 8.67899L26.8818 8.62848C27.2764 8.55148 27.6827 8.50466 28.0829 8.47551C28.1422 8.51313 27.8186 8.65791 28.4816 8.60723C28.3386 8.5789 28.0583 8.55817 28.1422 8.51313C30.1343 8.67108 34.3138 8.52825 37.5724 8.55913C41.973 8.39345 46.7593 8.4604 51.082 8.32208C50.4252 8.34316 50.6958 8.13116 51.1908 8.17055C52.5666 8.48792 53.5435 8.06568 54.9442 8.2706C57.4586 8.10526 59.7183 8.37292 62.055 8.06493L62.1018 8.16175C62.3763 8.17038 62.645 8.15498 62.914 8.11576L62.9077 8.14536C63.779 8.16677 64.8246 8.05064 65.3256 8.09022L65.3505 7.97777C65.864 7.95815 65.6243 8.05789 66.1503 7.98502L66.1378 8.03826L66.7477 7.92632C66.6982 8.11547 68.2041 7.91844 68.6212 7.9971C69.2901 7.95256 70.5505 7.84913 71.565 7.86909C72.3044 7.95192 73.0501 7.98727 73.7903 7.98072C75.3307 7.93377 77.5337 7.87188 79.4974 7.87994L79.4567 7.75947L79.9702 7.74581C79.9639 7.77541 80.0355 7.78362 79.9578 7.79905C80.3623 7.93691 81.1401 7.74085 81.5512 7.81932C81.2896 7.70979 81.1932 7.80807 80.9007 7.8108C80.4774 7.75578 80.8785 7.63132 81.445 7.68487L81.4328 7.71429L81.8155 7.64288C81.8623 7.7397 82.2141 7.78055 82.267 7.87161C83.9506 7.82319 85.0983 7.64471 86.835 7.66352C86.6609 7.77128 88.0829 7.61929 87.7409 7.81117C88.7862 7.73078 87.5632 7.66256 88.0361 7.52247C88.3285 7.5257 88.6334 7.46972 88.6865 7.53695C88.5488 7.58625 88.9302 7.64592 88.6913 7.6682L89.3898 7.64844C89.4553 7.66241 89.3059 7.68751 89.2281 7.70295C90.6498 7.58075 91.752 7.80013 93.0245 7.67324C93.1147 7.60456 92.5173 7.65731 92.6075 7.58863C93.8862 7.4381 93.7465 7.69593 94.9413 7.59044L94.6957 7.68403C95.0787 7.57688 95.4848 7.54792 95.8842 7.60219C96.0026 7.71318 95.3462 7.69851 95.0412 7.75449C95.4769 7.75626 96.5815 7.71349 96.2422 7.61939C96.5766 7.6001 96.9106 7.62848 97.2442 7.69855C97.2505 7.66895 96.7554 7.62956 97.0604 7.57358C97.7761 7.62587 98.8745 7.61271 99.7459 7.61625C99.7396 7.64585 99.799 7.68347 99.7272 7.69909C100.433 7.5544 100.365 7.80256 101.332 7.75548Z" fill="#003383"/>
<path d="M147.769 6.11966L147.417 6.1C147.417 6.12762 147.404 6.16171 147.237 6.19018L147.769 6.11966Z" fill="#003383"/>
<path d="M131.089 6.33465C131.047 6.34022 131.005 6.35293 130.963 6.37277C131.047 6.36163 131.071 6.34825 131.089 6.33465Z" fill="#003383"/>
<path d="M127.039 6.66285C127.326 6.63062 127.069 6.59947 126.926 6.56543C126.92 6.59387 126.926 6.62276 127.039 6.66285Z" fill="#003383"/>
<path d="M157.21 5.61208C157.15 5.62436 157.114 5.64482 157.119 5.66687C157.203 5.64823 157.222 5.62709 157.21 5.61208Z" fill="#003383"/>
<path d="M183.327 5.59123L183.226 5.56665C183.262 5.58187 183.291 5.58992 183.327 5.59123Z" fill="#003383"/>
<path d="M181.88 5.37728C181.779 5.3738 181.683 5.38357 181.587 5.39334C181.689 5.39681 181.784 5.39357 181.88 5.37728Z" fill="#003383"/>
<path d="M150.883 5.75651C150.793 5.76016 150.698 5.77049 150.608 5.79481C150.703 5.79826 150.793 5.78083 150.883 5.75651Z" fill="#003383"/>
<path d="M181.289 5.43156L180.925 5.41304C180.919 5.41919 180.919 5.42554 180.918 5.43824L181.289 5.43156Z" fill="#003383"/>
<path d="M183.786 5.6117C183.643 5.60719 183.452 5.60117 183.327 5.59125C183.482 5.62004 183.637 5.62493 183.786 5.6117Z" fill="#003383"/>
<path d="M166.796 5.36157L166.754 5.367C166.479 5.41264 166.652 5.39113 166.796 5.36157Z" fill="#003383"/>
<path d="M179.692 5.65777L179.645 5.64902L179.537 5.68005L179.692 5.65777Z" fill="#003383"/>
<path d="M185.361 5.66717C185.301 5.665 185.241 5.67671 185.181 5.68842L185.39 5.70993C185.367 5.68822 185.367 5.67433 185.361 5.66717Z" fill="#003383"/>
<path d="M172.266 5.51763C172.368 5.47046 172.404 5.43538 172.41 5.41373C172.29 5.41646 172.212 5.43537 172.266 5.51763Z" fill="#003383"/>
<g opacity="0.26">
<g opacity="0.26">
<g opacity="0.26">
<g opacity="0.26">
<path opacity="0.26" d="M176.668 3.84137C176.686 3.82729 176.698 3.80557 176.705 3.78362C176.674 3.80464 176.668 3.82659 176.668 3.84137Z" fill="#003383"/>
<path opacity="0.26" d="M160.579 3.53394L160.765 3.50614C160.705 3.50396 160.639 3.51539 160.579 3.53394Z" fill="#003383"/>
<path opacity="0.26" d="M186.308 4.01012C186.302 4.01521 186.29 4.01488 186.284 4.01996L186.964 4.03889L186.308 4.01012Z" fill="#003383"/>
<path opacity="0.26" d="M126.262 3.66302L126.477 3.65764C126.405 3.66151 126.334 3.65915 126.262 3.66302Z" fill="#003383"/>
<path opacity="0.26" d="M146.598 3.57955C146.509 3.60397 146.419 3.61455 146.323 3.61798C146.419 3.63532 146.514 3.61804 146.598 3.57955Z" fill="#003383"/>
<path opacity="0.26" d="M191.398 5.38183L191.124 5.28632C191.123 5.32893 191.225 5.36825 191.398 5.38183Z" fill="#003383"/>
<path opacity="0.26" d="M201.169 5.12642C201.163 5.11888 201.151 5.11111 201.145 5.10357C201.133 5.11773 201.145 5.1255 201.169 5.12642Z" fill="#003383"/>
<path opacity="0.26" d="M197.355 4.72776C197.272 4.73156 197.176 4.74174 197.08 4.75872C197.194 4.75599 197.343 4.76134 197.355 4.72776Z" fill="#003383"/>
<path opacity="0.26" d="M196.949 4.78043L197.08 4.76468C197.009 4.7621 196.949 4.76678 196.949 4.78043Z" fill="#003383"/>
<path opacity="0.26" d="M1.69448 9.10743C1.40151 9.13164 1.10826 9.19088 0.826718 9.27858L1.69448 9.10743Z" fill="#003383"/>
<path opacity="0.26" d="M95.1991 4.47565L95.2592 4.44165C95.1993 4.44662 95.1872 4.46068 95.1991 4.47565Z" fill="#003383"/>
<path opacity="0.26" d="M1.36736 9.91104L1.15851 9.91044C1.22413 9.91241 1.29572 9.91456 1.36736 9.91104Z" fill="#003383"/>
<path opacity="0.26" d="M186.221 5.60434C185.94 5.67958 185.362 5.57469 185.367 5.65328C185.659 5.64377 186.083 5.71066 186.221 5.60434Z" fill="#003383"/>
<path opacity="0.26" d="M88.7007 8.02622L88.5156 8.0327C88.6052 8.02936 88.6589 8.03116 88.7007 8.02622Z" fill="#003383"/>
<path opacity="0.26" d="M1.36733 9.90562L1.61219 9.90762C1.58843 9.89303 1.56466 9.87844 1.53486 9.8705C1.47498 9.88892 1.42113 9.9007 1.36733 9.90562Z" fill="#003383"/>
<path opacity="0.26" d="M62.8551 5.60321L62.867 5.60366L62.9329 5.58492L62.8551 5.60321Z" fill="#003383"/>
<path opacity="0.26" d="M61.1378 5.51782L61.5023 5.48364C61.377 5.47919 61.2575 5.48841 61.1378 5.51782Z" fill="#003383"/>
<path opacity="0.26" d="M0.826761 9.29984L0.341927 9.40133C0.503444 9.37921 0.665074 9.34304 0.826761 9.29984Z" fill="#003383"/>
<path opacity="0.26" d="M42.6518 6.43523L42.8191 6.42106C42.7654 6.41917 42.7056 6.42375 42.6518 6.43523Z" fill="#003383"/>
<path opacity="0.26" d="M147.905 3.60222L148.054 3.62122C148.072 3.60141 148.06 3.58735 147.905 3.60222Z" fill="#003383"/>
<path opacity="0.26" d="M135.83 6.06271C135.597 6.0542 135.37 6.08747 135.148 6.16944C135.381 6.17102 135.615 6.13797 135.83 6.06271Z" fill="#003383"/>
<path opacity="0.26" d="M133.687 6.1637L133.77 6.17295C133.74 6.17194 133.716 6.16471 133.687 6.1637Z" fill="#003383"/>
<path opacity="0.26" d="M147.411 6.09714L147.412 6.08977C147.406 6.08954 147.405 6.09691 147.405 6.09691L147.411 6.09714Z" fill="#003383"/>
<path opacity="0.26" d="M144.696 6.15145C144.636 6.13575 144.571 6.11984 144.505 6.11749C144.571 6.14018 144.63 6.1491 144.696 6.15145Z" fill="#003383"/>
<path opacity="0.26" d="M126.926 6.56535L126.915 6.55768L126.926 6.56535Z" fill="#003383"/>
<path opacity="0.26" d="M101.332 7.7547C103.899 7.68078 107.226 7.51767 109.78 7.53856C110.492 7.40622 111.22 7.33989 111.949 7.33901L112.042 7.5324L112.717 7.46438C112.991 7.52061 112.198 7.50158 112.686 7.57053L112.938 7.44753C112.991 7.51466 114.681 7.47857 113.545 7.62732L116.178 7.60901C116.763 7.60956 116.514 7.44699 117.158 7.49107C117.289 7.54875 116.931 7.53153 116.984 7.59867C118.922 7.72515 119.208 7.21043 121.01 7.28499L120.854 7.30986C121.159 7.25399 121.744 7.2605 121.75 7.23094C121.513 7.039 121.427 7.33384 120.879 7.22732C120.922 7.06205 121.56 7.13569 121.52 7.00944C121.866 7.03223 122.212 7.01337 122.559 6.96477C123.19 7.06797 124.086 6.98906 124.563 7.11712C124.988 6.99362 125.424 6.91809 125.866 6.89629C126.342 7.02435 125.757 7.01785 126.402 7.06788L126.504 6.97588C127.029 6.98646 126.951 7.01376 126.933 7.06079C127.321 7.00161 127.716 6.97831 128.109 6.9907L127.715 7.0854C128.24 7.04838 128.449 7.0609 129.183 7.07211C129.17 7.12528 128.878 7.12202 128.663 7.10931C129.062 7.24683 129.338 7.04724 129.553 7.05995C129.494 7.01643 128.987 7.00046 129.232 6.90703C129.596 6.92443 129.998 6.77638 130.259 6.88578L129.864 6.98048C130.277 6.8923 130.707 6.86417 131.13 6.89536C131.083 6.8998 131.106 6.92435 131.088 6.94759C131.775 6.87994 132.474 6.87812 133.165 6.94155L133.01 6.96642C133.339 6.9351 133.512 6.85131 133.691 6.85694C133.226 6.80064 133.352 6.77484 133.311 6.68429C133.924 6.84047 134.238 6.49922 135.24 6.59026C135.227 6.64343 134.988 6.71326 134.708 6.65684C134.42 6.86201 134.084 6.99427 133.726 7.0306C134.102 6.99484 134.55 6.96728 134.454 7.03567L134.569 6.88455C134.795 6.87979 134.98 6.89156 135.153 6.88511C135.25 6.79292 134.689 6.73362 135.215 6.66686C135.813 6.61424 135.536 6.81978 135.626 6.75121C136.451 6.68789 135.962 6.58919 136.755 6.63797C136.66 6.65876 136.558 6.66747 136.457 6.66428C137.023 6.72376 137.854 6.63088 138.019 6.81462C137.929 6.8832 137.815 6.91533 137.708 6.8941L137.714 6.86454C137.092 6.99969 138.234 6.82733 138.041 6.99386C137.995 6.89716 138.794 6.92233 139.152 6.93955L139.034 6.8287C140.225 6.50316 138.972 7.04695 140.154 7.0068C140.907 6.93527 139.868 6.97398 140.328 6.89921C140.805 6.96183 141.288 6.98894 141.772 6.9744C141.98 7.01667 142.404 7.0776 142.444 7.20386C142.987 7.22095 143.531 7.20234 144.074 7.14209C143.299 7.03438 143.309 7.27274 142.403 7.10735L142.655 6.9903C143.282 6.99812 144.076 6.93981 144.512 6.98327C144.422 6.95665 144.387 6.92578 144.441 6.90367C145.104 6.82338 145.779 6.77916 146.453 6.77658C146.572 6.88743 146.065 6.86552 145.694 6.87767C146.177 6.92263 146.661 6.93784 147.144 6.92331C147.191 7.02 146.559 6.9168 146.463 7.00899L147.424 6.97973C147.418 6.98549 147.424 6.99163 147.424 6.99758C147.563 6.83531 148.158 7.01473 148.744 6.96769C149.549 6.9633 150.344 6.85144 151.11 6.62561C151.319 6.66788 151.378 6.7114 151.294 6.75042C150.955 6.68022 151.014 6.73564 150.894 6.77353C151.366 6.75862 151.925 6.93691 151.662 7.00004C152.409 6.95212 151.394 6.91424 151.848 6.86307L152.869 6.87734C152.744 6.79606 152.386 6.77289 152.912 6.71207C153.36 6.69046 153.575 6.70912 154.154 6.71544C154.07 6.75446 154.337 6.84025 153.902 6.83249C154.2 6.87758 154.504 6.86336 154.792 6.78908C154.154 6.70949 155.837 6.72081 155.361 6.59275L155.998 6.67234C155.855 6.66783 155.837 6.72676 155.622 6.7081C155.806 6.83291 156.142 6.67684 156.363 6.66594C156.649 6.67496 156.935 6.70777 157.221 6.75843C157.484 6.72505 157.753 6.7454 158.008 6.81892C158.307 6.79857 158.033 6.73638 158.117 6.69736L159.138 6.71758C159.191 6.79067 159.278 6.97791 159.129 7.00297C159.511 6.94359 159.262 6.79887 159.847 6.81132C159.517 6.94378 160.616 6.91884 160.137 7.07635C160.739 7.17266 161.347 7.19777 161.945 7.15111C162.268 7.04821 161.378 7.08567 161.409 6.97952C162.884 6.95452 162.97 6.65373 164.05 6.71152L163.77 6.67889C164.104 6.67156 164.439 6.62854 164.762 6.54944C164.575 6.68045 165.534 6.91892 166.639 6.90012C166.729 6.83154 166.019 6.76755 166.199 6.66014L166.933 6.64755C166.987 6.66114 166.903 6.6823 166.814 6.69734C167.471 6.65255 168.041 6.88476 168.234 6.72419L168.906 6.92984L168.639 6.84405C168.961 6.7828 169.29 6.75148 169.624 6.7382C170.103 6.67588 170.592 6.70318 171.068 6.81935C170.937 6.76167 170.61 6.63235 171.201 6.61525C171.199 6.83538 172.448 6.70805 172.429 6.82052C172.668 6.82209 173.097 6.8951 173.121 6.80661L173.084 6.94232C173.14 6.75363 174.011 6.7751 174.68 6.74854C174.528 7.00562 175.414 6.7419 175.716 6.97755C175.843 6.80302 176.905 6.92569 177.019 6.78052C177.533 6.77882 177.483 6.94391 177.614 7.00158L177.853 6.9377C178.115 7.02331 179.082 7.04778 179.66 7.1136L180.193 6.96373L180.389 7.03537C180.473 6.99635 180.921 6.98069 180.641 6.91832L180.927 6.93329C180.953 6.76745 181.334 6.89251 181.913 6.82744C182.05 6.85556 182.014 6.89608 181.889 6.91593C182.175 6.92494 182.055 7.00448 182.215 7.0631C182.007 7.01488 183.257 6.77451 182.476 6.68446C182.423 6.61732 182.877 6.5721 183.163 6.60492L183.334 6.7591L183.676 6.60322C184.01 6.61374 184.344 6.654 184.672 6.71193C184.302 6.71813 183.852 6.98962 184.806 7.00182C184.466 7.02086 184.131 7.05794 183.802 7.12495C183.999 7.1371 184.101 7.15219 183.79 7.20787C184.536 7.17185 184.041 7.12057 184.776 7.10797C184.732 7.24349 184.941 7.29171 185.585 7.34769L185.103 7.24324C185.133 7.22633 185.162 7.21537 185.192 7.20441C185.008 7.18669 184.96 7.16139 184.919 7.11248C185.062 7.11699 185.774 6.9549 185.892 7.04195C185.148 6.81619 187.183 6.89809 186.713 6.76426C186.928 6.71748 187.155 6.73056 187.363 6.79663C186.747 6.89033 187.827 6.96002 187.725 7.05202C187.952 7.01751 187.242 6.94161 187.547 6.89764C187.833 6.90666 188.114 6.94523 188.387 7.02527L188.232 7.05013L188.798 7.12152C188.889 7.05294 188.251 6.9912 188.77 6.97184C188.907 7.00591 189.432 6.98079 189.414 7.03377C189.162 7.12108 189.346 7.25184 188.899 7.26155C189.269 7.26129 190.444 7.27449 189.968 7.13453L190.41 7.14843C190.136 7.08625 189.361 6.96069 190.244 6.96469L190.238 7.0002L190.854 6.91245L191.121 6.9923C191.116 6.95641 191.212 6.92967 191.438 6.93681C191.498 6.98033 191.712 6.99899 191.694 7.05197C192.356 7.06092 192.303 6.98784 192.387 6.95477C192.757 6.95452 192.894 6.98263 192.72 7.06048C193.299 7.0668 193.878 7.10881 194.456 7.17463C195.137 7.1306 194.319 7.14056 194.714 7.05777C195.297 7.3082 196.951 7.20554 198.055 7.19864C197.753 6.98083 198.36 7.18442 198.559 6.99429C198.319 7.05222 199.607 7.18203 198.64 7.21704L199.231 7.21184C199.636 7.33765 198.251 7.27623 198.865 7.44431C199.486 7.3627 200.113 7.32293 200.74 7.33075C200.476 7.47122 201.343 7.29617 201.145 7.45061C200.947 7.48606 200.75 7.49771 200.547 7.48537L200.684 7.51944C202.134 7.59483 201.104 7.35411 201.868 7.27106C202.752 7.27505 202.566 7.40607 202.619 7.4732C202.893 7.49969 203.162 7.49624 203.436 7.45729C202.899 7.53558 202.441 7.34263 202.686 7.25514C203.199 7.37243 203.73 7.36535 204.238 7.23853C202.975 7.03213 203.361 7.21092 202.182 6.9893C202.02 7.03777 202.042 7.18726 201.333 7.11137C201.781 7.04811 201.304 7.02714 201.179 6.99939C201.315 7.087 200.683 7.02545 200.468 7.05439C200.272 6.97679 200.894 6.86544 200.172 6.81297L200.033 7.01688C199.752 6.9783 200.153 6.8719 199.55 6.90647C199.873 6.80953 199.45 6.7367 200.268 6.72673C199.297 6.52953 198.781 6.78706 198.023 6.84055C198.1 6.83109 198.107 6.80153 198.184 6.79207C197.963 6.83272 197.736 6.84938 197.51 6.83629C197.015 6.77906 197.904 6.7535 197.773 6.69582L196.968 6.68236C196.95 6.67585 196.95 6.6699 196.95 6.6699C196.789 6.70648 196.621 6.70122 196.461 6.6545C196.7 6.59657 196.796 6.52818 196.958 6.47971L196.115 6.60196C196.205 6.53934 195.418 6.46695 196.021 6.43237L194.768 6.42863L194.662 6.28841C194.363 6.30877 194.351 6.33219 194.715 6.35555C194.285 6.31228 192.815 6.55165 193.044 6.28511C192.059 6.37311 191.707 6.32038 190.519 6.36035C191.433 6.2582 189.47 6.17261 190.437 6.13759C190.055 6.11962 189.673 6.1433 189.302 6.22089C188.885 6.1542 189.072 6.02319 189.526 5.98392L188.994 6.03265L189.006 6.00327L188.546 6.0721C188.057 5.99126 188.446 5.93208 187.939 5.90421L187.83 6.02577L187.485 5.94943C187.615 6.00711 187.311 6.02728 186.947 6.03367L186.953 6.00411L186.505 6.01977C186.947 5.95038 186.099 5.98915 186.297 5.90016C185.915 5.88814 185.909 5.88795 185.217 5.90186L185.335 5.98891C184.434 6.04979 185.295 5.86266 184.567 5.84569L184.614 5.94239C183.565 5.76654 182.834 6.00541 182.054 5.89156C182.501 5.8759 182.383 5.76505 182.377 5.78866C181.708 5.81522 180.616 5.76895 179.929 5.87824C179.614 5.69576 179.257 5.60714 178.905 5.61986C178.391 5.62156 178.314 5.63102 178.146 5.70905C177.656 5.71745 177.167 5.6842 176.678 5.61525C176.564 5.69497 176.225 5.58908 175.956 5.65797L175.896 5.61445L175.943 5.71114C175.056 5.48087 174.444 5.80678 173.545 5.61184L173.7 5.58697L173.324 5.61679C173.265 5.57326 173.414 5.54821 173.433 5.49523L171.678 5.45191L172.024 5.52825C171.683 5.57704 171.331 5.58381 170.985 5.56101C171.684 5.42235 170.4 5.54856 170.288 5.4379L170.664 5.40214C170.151 5.40383 170.151 5.40383 170.191 5.50034C169.523 5.5269 169.734 5.31334 169.118 5.41299L169.559 5.42094C169.69 5.47861 169.373 5.55195 169.081 5.5487C169.009 5.53454 168.807 5.48651 169.028 5.47561C168.502 5.50668 167.715 5.45214 167.482 5.48646C167.196 5.45365 167.292 5.38526 167.441 5.36021C166.318 5.43794 166.934 5.3383 165.811 5.41008L165.83 5.3571L165.429 5.4397L164.875 5.3211L165.071 5.39274C164.731 5.41773 164.385 5.41874 164.045 5.40208L164.218 5.32424C163.179 5.36295 163.014 5.17921 162.028 5.28505C161.963 5.27109 162.112 5.24604 162.19 5.23063C161.276 5.35063 161.493 5.07777 160.578 5.22752C160.632 5.19946 160.531 5.16652 160.567 5.14385L160.149 5.1902L160.18 5.08405L159.838 5.23992L159.577 5.13052L159.415 5.17899C158.969 4.96858 158.335 5.1212 157.722 4.95907L157.828 5.09929C156.286 5.36615 154.29 4.91057 152.421 5.04217L152.452 4.93602L151.681 5.06053C151.264 4.97599 151.926 4.96709 151.795 4.90941C150.971 4.96678 151.454 5.07124 150.498 5.10068C150.01 5.02579 150.666 5.02265 150.899 4.98238C149.95 5.05365 148.995 5.0712 148.04 5.02925C148.028 5.04077 147.986 5.06326 148.022 5.07033C147.424 5.117 146.631 5.06822 145.968 5.07117C145.981 5.02395 146.148 5.01136 146.309 5.00453C146.053 4.97861 145.796 4.98243 145.545 5.01024L145.791 4.9168C145.259 4.95363 144.722 4.93673 144.192 4.86647C144.251 4.90999 144.232 4.99272 143.791 4.98477C143.548 4.81643 142.596 5.0543 141.893 4.96074C141.977 4.92172 142.49 4.91408 142.347 4.90957C142.019 4.88734 141.69 4.91866 141.367 4.99181L141.463 4.92342L139.827 5.01475C139.584 4.84641 138.281 5.03749 138.39 4.91594C137.805 4.90943 138.884 4.99102 138.144 5.00938C137.948 4.93774 137.475 5.04784 137.506 4.93574L137.584 4.92033L137.064 4.92779L137.388 4.81894C136.946 4.84074 136.617 4.9494 136.598 5.03213C136.192 5.0253 135.786 4.99469 135.381 4.92837L135.537 4.90351C134.354 4.94961 133.57 4.61545 132.643 4.80052C132.571 4.78636 132.583 4.75699 132.727 4.7615L131.993 4.7622L132.166 4.6784L130.96 4.80705L130.972 4.75388C130.172 4.73466 128.925 4.7668 127.892 4.78785L128.047 4.76299C126.924 4.85262 126.961 4.71691 126.143 4.77447C126.167 4.76332 126.197 4.75236 126.227 4.7533L125.487 4.75976L125.648 4.70534C125.236 4.72807 124.831 4.70935 124.419 4.65475C124.103 4.68644 123.792 4.74807 123.492 4.83982C122.686 4.85016 123.296 4.76817 122.795 4.7286C122.305 4.76674 121.816 4.78109 121.32 4.77145L121.333 4.71828C120.963 4.73044 120.735 4.77089 120.222 4.77854L120.377 4.75368C119.541 4.87612 119.328 4.60163 118.675 4.84294C118.324 4.80211 117.655 4.84057 117.686 4.72847C116.64 4.80864 115.828 4.84259 114.795 4.89934C114.624 4.72136 114.574 4.91024 113.943 4.81299L113.989 4.90968C112.521 4.93487 110.828 4.709 109.21 4.75924L109.163 4.66255L108.84 4.7714C107.097 4.74035 104.841 4.71695 103.45 4.72674C102.835 4.82638 102.213 4.87824 101.587 4.87637L101.664 4.86096C100.41 4.92861 99.0787 4.98787 97.7063 4.94467C97.7902 4.90566 97.6532 4.87754 97.8027 4.84654C97.438 4.90647 97.0679 4.91268 96.7043 4.85957L97.0498 4.92996C96.6672 5.00123 96.2734 4.98289 95.8984 4.87587L95.2825 4.98741C95.2408 4.98014 95.1753 4.96618 95.1695 4.94814L95.0616 4.99831L94.7285 4.87475C94.3165 4.89749 93.91 4.96206 93.509 5.06846C93.4498 5.02494 92.871 5.00077 93.319 4.97321L91.0629 4.96171L91.4146 5.00254C91.4615 5.09923 90.7863 5.16725 90.4346 5.12642C90.889 5.04551 90.4657 4.99053 90.2694 4.91889C89.9645 4.97475 90.5373 4.99873 90.3816 5.05334C89.9212 5.12812 89.4495 5.14898 88.9782 5.12224L89.2054 5.08179C88.6857 5.12494 88.4367 4.95642 87.9232 4.97001C87.4629 5.05074 87.1173 4.9863 87.2172 5.15013C86.5483 5.19454 86.9556 5.04073 86.7409 5.02802C86.2865 5.10298 85.8211 5.08833 85.3684 4.99077C85.0079 5.24127 83.5605 4.92791 83.4332 5.1322L82.8791 5.02549C82.8666 5.07866 82.758 5.20616 82.316 5.23391C81.8928 5.17893 81.9892 5.0808 81.8644 5.02926L81.5878 5.2348C79.1603 5.05127 75.9771 5.24268 73.3164 5.09942C72.1341 5.15743 70.6467 5.27725 69.268 5.26956L69.4175 5.23856L68.045 5.20726L69.0471 5.28046C68.7484 5.30676 68.5151 5.35298 68.2286 5.35587C66.4329 5.26364 64.6422 5.26679 62.8507 5.36513C61.6605 5.61928 62.0467 5.17319 60.8989 5.36321C60.9946 5.34242 61.0308 5.30785 61.1205 5.28092C59.8841 5.37888 59.2151 5.42923 57.978 5.58669C58.1116 5.35284 57.1721 5.60298 57.2747 5.48123L57.1723 5.57918C56.8923 5.52871 56.2418 5.52013 56.332 5.45156L55.7876 5.57725L55.7348 5.48037C55.0066 5.48721 53.4536 5.59901 53.0615 5.40813C51.2691 5.58976 48.4279 5.6015 46.1717 5.60785C45.6814 5.68764 45.1856 5.73155 44.6843 5.72767L44.1302 5.62096C43.616 5.71785 43.0962 5.76695 42.571 5.76233C42.5711 5.75043 42.5951 5.73928 42.625 5.73427C42.1118 5.72407 41.5981 5.76146 41.0901 5.83474C40.5051 5.84013 39.9385 5.79254 40.1126 5.68495C40.0631 5.87383 38.8771 5.68772 38.8771 5.68772C38.8771 5.68772 31.4036 5.74409 23.0154 5.96807C14.6211 6.1978 5.3239 6.60146 1.69448 7.26683C1.41892 7.37123 0.67179 7.47864 0.981272 7.5717C0.413555 7.6431 0.10453 7.50245 0.0140549 7.60077C0.807831 7.6079 -0.149509 7.85152 0.625794 7.91759L0.159687 7.97433C0.0814311 8.04328 0.775539 7.86279 0.690803 7.9851L0.788045 7.80367C1.03888 7.78776 1.28927 7.81945 1.53334 7.88664C1.95314 7.67966 2.42556 7.58741 2.90263 7.63218L2.67566 7.64884C3.3385 7.61614 3.08652 7.75104 3.22956 7.77339L3.08032 7.77465L3.64667 7.84604C3.2233 7.80295 2.52931 7.97155 2.89364 7.94731C3.6873 7.96634 2.68508 7.91099 3.27638 7.87009C3.64667 7.84604 3.54426 7.94398 3.53176 8.0031L4.18863 7.97022C4.16993 8.05295 3.75282 7.9803 4.02667 8.05439L4.85148 7.93752C5.01667 8.13911 5.74807 7.80506 6.14023 7.98999C5.54273 8.0545 6.19927 8.05731 6.10311 8.1257L7.56599 8.07057C7.70305 8.09274 7.18324 8.14779 7.40425 8.13094C7.60707 8.14328 7.81023 8.11992 8.0018 8.06048C8.13262 8.11221 9.09444 8.02346 9.06323 8.16531C10.0594 8.22642 9.47093 7.9758 10.4015 8.02889C10.5261 8.11018 9.66698 8.07124 10.0841 8.14388L11.0517 8.07911C10.8955 8.18132 10.704 8.22885 10.5132 8.21095C13.1153 8.23929 14.5379 8.64709 16.9032 8.47159C17.2426 8.55964 16.6638 8.54737 16.4303 8.61739C18.145 8.43926 18.8581 8.77117 20.321 8.71604L20.3456 8.6335C22.397 8.83495 24.8462 8.62638 27.1616 8.6695L26.8816 8.61903C27.2762 8.54218 27.6826 8.49546 28.0828 8.4664C28.1421 8.50397 27.8184 8.64852 28.4814 8.59797C28.3384 8.56967 28.0581 8.54894 28.1421 8.50397C30.1341 8.66189 34.3136 8.51969 37.5723 8.55084C41.9728 8.38584 46.7591 8.45318 51.0818 8.31548C50.425 8.33647 50.6957 8.12479 51.1907 8.16418C52.5664 8.48123 53.5434 8.05969 54.9441 8.26446C57.4585 8.09961 59.7181 8.36712 62.0548 8.05979L62.1017 8.15648C62.3761 8.16512 62.6449 8.14978 62.9138 8.11063L62.9076 8.14019C63.7788 8.16166 64.8245 8.0458 65.3255 8.08537L65.3504 7.97308C65.8639 7.95354 65.6242 8.05311 66.1502 7.9804L66.1377 8.03357L66.7476 7.92184C66.698 8.11072 68.204 7.91412 68.6211 7.99271C69.29 7.9483 70.5504 7.84515 71.5649 7.86518C72.3043 7.94796 73.05 7.98333 73.7902 7.97688C75.3306 7.93014 77.5336 7.86856 79.4973 7.8768L79.4567 7.7565L79.9701 7.7429C79.9639 7.77246 80.0354 7.78067 79.9577 7.79607C80.3622 7.93378 81.14 7.73807 81.5511 7.81647C81.2895 7.70707 81.1931 7.8052 80.9006 7.8079C80.4774 7.75292 80.8784 7.62867 81.445 7.6822L81.4327 7.71158L81.8154 7.6403C81.8623 7.737 82.214 7.77783 82.2669 7.86876C83.9505 7.82058 85.0982 7.64246 86.835 7.66142C86.6608 7.76901 88.0828 7.61738 87.7408 7.80896C88.7861 7.72878 87.5631 7.66053 88.036 7.52069C88.3285 7.52394 88.6334 7.46808 88.6865 7.53521C88.5487 7.58443 88.9302 7.64405 88.6912 7.66628L89.3897 7.64661C89.4552 7.66058 89.3058 7.68563 89.228 7.70104C90.6498 7.57915 91.7519 7.79833 93.0244 7.67175C93.1146 7.60317 92.5173 7.65579 92.6075 7.58721C93.8862 7.43702 93.7464 7.69448 94.9412 7.58925L94.6956 7.68269C95.0786 7.57572 95.4848 7.54685 95.8842 7.60108C96.0025 7.71192 95.3461 7.69721 95.0411 7.75308C95.4768 7.75489 96.5814 7.71229 96.2421 7.6183C96.5766 7.59907 96.9105 7.62743 97.2441 7.69744C97.2504 7.66789 96.7553 7.6285 97.0603 7.57263C97.776 7.62492 98.8744 7.61188 99.7458 7.6155C99.7396 7.64506 99.7989 7.68264 99.7271 7.69823C100.433 7.55381 100.365 7.80162 101.332 7.7547Z" fill="#003383"/>
<path opacity="0.26" d="M147.769 6.11968L147.417 6.09996C147.417 6.12756 147.404 6.16162 147.237 6.19003L147.769 6.11968Z" fill="#003383"/>
<path opacity="0.26" d="M131.089 6.33467C131.047 6.34023 131.005 6.35292 130.963 6.37274C131.047 6.36163 131.071 6.34826 131.089 6.33467Z" fill="#003383"/>
<path opacity="0.26" d="M127.039 6.66282C127.326 6.63067 127.069 6.59949 126.926 6.56543C126.92 6.59385 126.926 6.62273 127.039 6.66282Z" fill="#003383"/>
<path opacity="0.26" d="M157.21 5.6121C157.15 5.62436 157.114 5.6448 157.119 5.66685C157.203 5.64824 157.222 5.62711 157.21 5.6121Z" fill="#003383"/>
<path opacity="0.26" d="M183.327 5.59123L183.226 5.56665C183.262 5.58187 183.291 5.58991 183.327 5.59123Z" fill="#003383"/>
<path opacity="0.26" d="M181.88 5.37731C181.779 5.37382 181.683 5.38356 181.588 5.3933C181.689 5.39679 181.785 5.39356 181.88 5.37731Z" fill="#003383"/>
<path opacity="0.26" d="M150.883 5.75656C150.793 5.76019 150.698 5.77048 150.608 5.79476C150.703 5.79823 150.793 5.78083 150.883 5.75656Z" fill="#003383"/>
<path opacity="0.26" d="M181.289 5.43158L180.925 5.41304C180.919 5.41918 180.919 5.42553 180.919 5.43821L181.289 5.43158Z" fill="#003383"/>
<path opacity="0.26" d="M183.786 5.61172C183.643 5.6072 183.452 5.60117 183.327 5.59125C183.482 5.62002 183.637 5.62492 183.786 5.61172Z" fill="#003383"/>
<path opacity="0.26" d="M166.796 5.3616L166.754 5.36702C166.479 5.41257 166.652 5.39111 166.796 5.3616Z" fill="#003383"/>
<path opacity="0.26" d="M179.692 5.65779L179.645 5.64904L179.537 5.68002L179.692 5.65779Z" fill="#003383"/>
<path opacity="0.26" d="M185.361 5.6672C185.301 5.66502 185.241 5.67671 185.181 5.6884L185.39 5.70993C185.367 5.68824 185.367 5.67436 185.361 5.6672Z" fill="#003383"/>
<path opacity="0.26" d="M172.266 5.5176C172.368 5.47047 172.404 5.4354 172.41 5.41377C172.29 5.41647 172.212 5.43535 172.266 5.5176Z" fill="#003383"/>
</g>
</g>
</g>
</g>
<path d="M31.4231 8.1129C31.4049 8.12701 31.3927 8.14874 31.3865 8.17811C31.4168 8.14967 31.429 8.13533 31.4231 8.1129Z" fill="#003383"/>
<path d="M47.5052 8.03144L47.3198 8.0593C47.3855 8.06169 47.4453 8.05694 47.5052 8.03144Z" fill="#003383"/>
<path d="M21.7902 8.29883C21.7962 8.29316 21.8081 8.29353 21.8142 8.28786L21.1398 8.29045L21.7902 8.29883Z" fill="#003383"/>
<path d="M81.8 7.81152L81.5851 7.81076C81.6567 7.81289 81.7283 7.81503 81.8 7.81152Z" fill="#003383"/>
<path d="M61.4761 7.84361C61.5659 7.81915 61.6557 7.80162 61.7512 7.80509C61.6558 7.78776 61.5601 7.80508 61.4761 7.84361Z" fill="#003383"/>
<path d="M16.6614 7.17737L16.9416 7.25807C16.9359 7.22267 16.8346 7.18376 16.6614 7.17737Z" fill="#003383"/>
<path d="M6.90051 8.00861C6.90644 8.01604 6.91835 8.0237 6.92433 8.02392C6.94233 8.01739 6.93042 8.00973 6.90051 8.00861Z" fill="#003383"/>
<path d="M10.7289 8.18317C10.8127 8.17232 10.9084 8.15495 11.0041 8.13758C10.8906 8.14039 10.7411 8.14885 10.7289 8.18317Z" fill="#003383"/>
<path d="M11.1358 8.10832L11.0042 8.1314C11.0759 8.12705 11.1357 8.12226 11.1358 8.10832Z" fill="#003383"/>
<path d="M206.365 7.82147C206.592 7.82959 206.819 7.80362 207.04 7.74333L206.365 7.82147Z" fill="#003383"/>
<path d="M112.855 7.59743L112.795 7.63149C112.854 7.61923 112.861 7.61219 112.855 7.59743Z" fill="#003383"/>
<path d="M206.715 7.06128L206.906 7.08776C206.841 7.07225 206.781 7.06356 206.715 7.06128Z" fill="#003383"/>
<path d="M21.8355 6.69987C22.1169 6.61564 22.6954 6.70333 22.6901 6.62243C22.3914 6.63879 21.9618 6.58999 21.8355 6.69987Z" fill="#003383"/>
<path d="M119.41 4.22812L119.595 4.22799C119.506 4.22526 119.452 4.22362 119.41 4.22812Z" fill="#003383"/>
<path d="M206.715 7.06982L206.495 7.03412C206.513 7.04861 206.536 7.06331 206.56 7.07802C206.614 7.06613 206.662 7.06787 206.715 7.06982Z" fill="#003383"/>
<path d="M145.189 7.62842L145.177 7.62799L145.111 7.6394L145.189 7.62842Z" fill="#003383"/>
<path d="M146.899 7.78064L146.535 7.80092C146.66 7.81182 146.78 7.80937 146.899 7.78064Z" fill="#003383"/>
<path d="M207.04 7.72776L207.435 7.68039C207.304 7.68252 207.172 7.70514 207.04 7.72776Z" fill="#003383"/>
<path d="M165.391 7.76059L165.224 7.7678C165.284 7.76981 165.337 7.77163 165.391 7.76059Z" fill="#003383"/>
<path d="M60.1699 7.82102L60.0207 7.80192C60.0026 7.82872 60.0144 7.83601 60.1699 7.82102Z" fill="#003383"/>
<path d="M72.2385 5.33807C72.4714 5.34651 72.6986 5.31329 72.9203 5.23841C72.6873 5.23688 72.4601 5.2701 72.2385 5.33807Z" fill="#003383"/>
<path d="M74.3881 5.25199L74.3046 5.24274C74.3343 5.25017 74.3582 5.25098 74.3881 5.25199Z" fill="#003383"/>
<path d="M60.651 5.33325L60.6509 5.34062C60.657 5.34085 60.657 5.33348 60.657 5.33348L60.651 5.33325Z" fill="#003383"/>
<path d="M63.3727 5.2641C63.4323 5.2798 63.4978 5.29572 63.5635 5.29806C63.498 5.27535 63.4324 5.26623 63.3727 5.2641Z" fill="#003383"/>
<path d="M81.153 4.91019C81.1472 4.90997 81.153 4.91019 81.153 4.91019L81.1645 4.91782L81.153 4.91019Z" fill="#003383"/>
<path d="M106.764 4.67643C104.192 4.68446 100.86 4.80026 98.3066 4.74643C97.5893 4.86112 96.8606 4.91873 96.1326 4.90259L96.0449 4.71837L95.37 4.77192C95.096 4.71263 95.8895 4.74209 95.4008 4.67069L95.149 4.78232C95.096 4.71831 93.4069 4.72444 94.542 4.60524L91.9102 4.58879C91.3254 4.57694 91.5745 4.73762 90.9304 4.68994C90.7996 4.63495 91.1635 4.65721 91.1045 4.58734C89.1663 4.43846 88.8749 4.9291 87.0735 4.82972L87.2289 4.80601C86.9241 4.85362 86.3393 4.84744 86.3331 4.86995C86.5699 5.05864 86.6563 4.77182 87.2043 4.88471C87.1609 5.0423 86.5171 4.96626 86.5577 5.08665C86.2118 5.06493 85.8655 5.07725 85.5189 5.12361C84.8932 5.02542 83.9913 5.08919 83.5151 4.96709C83.0902 5.08488 82.6538 5.15692 82.206 5.17188C81.7298 5.04978 82.3146 5.05596 81.6705 5.00829L81.5681 5.10169C81.0371 5.08577 81.1209 5.05991 81.1392 5.02074C80.7507 5.07152 80.3566 5.09376 79.9628 5.08195L80.3576 4.99731C79.832 5.03264 79.6174 5.01485 78.8893 5.00439C78.9018 4.95369 79.1942 4.95677 79.4148 4.97474C79.0163 4.83795 78.7399 5.02828 78.5251 5.01617C78.5844 5.05767 79.0916 5.07287 78.846 5.16198C78.4821 5.1454 78.0749 5.28074 77.8193 5.17661L78.2141 5.09197C77.7955 5.17022 77.3715 5.19724 76.948 5.16752C76.9958 5.16328 76.9722 5.13987 76.9903 5.11772C76.3034 5.17658 75.6051 5.17835 74.9134 5.11222L75.0688 5.08851C74.7403 5.11838 74.5664 5.19829 74.3874 5.19293C74.8524 5.24659 74.7268 5.2712 74.7677 5.35754C74.1545 5.20298 73.841 5.52839 72.8392 5.43594C72.8517 5.38524 73.091 5.32432 73.371 5.37811C73.6594 5.18246 74.0008 5.06218 74.3532 5.02734C73.9769 5.06146 73.5291 5.08209 73.6252 5.01687L73.5104 5.16097C73.2835 5.16552 73.0986 5.15431 72.9256 5.1548C72.8292 5.2427 73.3896 5.3049 72.8638 5.36291C72.2666 5.40743 72.543 5.2171 72.4529 5.27682C71.6287 5.33157 72.1171 5.43133 71.3239 5.37918C71.4195 5.35935 71.5211 5.35104 71.6225 5.35976C71.0501 5.30288 70.2257 5.38032 70.0543 5.21062C70.1444 5.14522 70.2581 5.11458 70.3713 5.135L70.3651 5.16319C70.987 5.03996 69.8456 5.19301 70.038 5.03989C70.0849 5.13209 69.2854 5.10813 68.9214 5.09722L69.0397 5.20291C67.8489 5.51906 69.1015 4.9948 67.9134 5.03864C67.1606 5.11255 68.1995 5.06991 67.7393 5.14124C67.2624 5.08155 66.7792 5.0614 66.2956 5.07528C66.0871 5.03498 65.6639 4.97691 65.6233 4.86219C65.0803 4.84592 64.537 4.86936 63.9933 4.92684C64.7682 5.02383 64.7585 4.80223 65.6642 4.95421L65.4123 5.07151C64.7857 5.06408 63.9854 5.12522 63.5561 5.08398C63.6454 5.10368 63.6809 5.13879 63.627 5.15987C62.9637 5.24214 62.2888 5.28434 61.6144 5.28683C61.4961 5.18114 62.0032 5.19633 62.3733 5.1904C61.8903 5.14755 61.407 5.13307 60.9234 5.15262C60.8766 5.06043 61.5082 5.1588 61.6047 5.06522L60.6435 5.09316C60.6495 5.08767 60.6436 5.08182 60.6437 5.07614C60.5108 5.23106 59.9097 5.0655 59.3243 5.11038C58.5186 5.11461 57.7237 5.22698 56.9576 5.44236C56.7491 5.40206 56.6899 5.36056 56.7738 5.32335C57.1193 5.39045 57.0542 5.33743 57.1739 5.29562C56.7023 5.30986 56.1429 5.14556 56.4061 5.08535C55.6596 5.13107 56.6798 5.16732 56.2198 5.21596L55.1936 5.17953C55.3182 5.25703 55.6761 5.27343 55.1503 5.33712C54.7025 5.35775 54.4877 5.34564 53.9089 5.33964C53.9928 5.30243 53.7191 5.22046 54.1607 5.22235C53.8627 5.17937 53.5581 5.19861 53.271 5.26378C53.9089 5.33397 52.2259 5.3346 52.7081 5.45687L52.0701 5.39236C52.2134 5.39098 52.2318 5.34046 52.4465 5.35257C52.2627 5.23356 51.9269 5.38807 51.7059 5.40414C51.4195 5.40123 51.1333 5.37563 50.8473 5.32734C50.5843 5.36485 50.3159 5.34546 50.0599 5.28104C49.7613 5.30614 50.0353 5.35975 49.9514 5.39696L48.9248 5.40024C48.8657 5.33605 48.778 5.15183 48.9334 5.12812C48.5509 5.19042 48.8002 5.32274 48.2213 5.32241C48.5509 5.19042 47.4463 5.23109 47.9253 5.07521C47.3233 4.99475 46.7147 4.97651 46.1114 5.0322C45.7881 5.136 46.6838 5.08907 46.647 5.19012C45.1783 5.2369 45.0919 5.52372 44.0121 5.48001L44.2924 5.50543C43.958 5.51811 43.6293 5.56501 43.3062 5.64612C43.4866 5.51533 42.5278 5.30501 41.4233 5.34001C41.3331 5.4054 42.0488 5.46089 41.8687 5.56332L41.1403 5.58689C41.0867 5.5796 41.1645 5.55356 41.2602 5.53941C40.6032 5.58781 40.0263 5.37759 39.8398 5.53089L39.1613 5.34599L39.4291 5.42211C39.1062 5.48053 38.7776 5.52175 38.4492 5.53461C37.971 5.6054 37.4758 5.58489 36.9994 5.47982C37.1302 5.53481 37.4632 5.65261 36.8722 5.67462C36.8742 5.46472 35.6255 5.60321 35.6384 5.50145C35.3997 5.50565 34.9705 5.44739 34.9458 5.53744L34.9829 5.40804C34.9333 5.58814 34.0559 5.5959 33.3871 5.6326C33.5328 5.38161 32.6527 5.66166 32.3446 5.44246C32.2235 5.61475 31.156 5.52602 31.0472 5.6703C30.5278 5.68311 30.5771 5.53136 30.4463 5.47637L30.2069 5.54297C29.9451 5.46703 28.9782 5.4721 28.3997 5.42639L27.867 5.58067L27.6647 5.51786C27.5808 5.55507 27.1388 5.58722 27.4129 5.63515L27.1265 5.62657C27.107 5.79055 26.7201 5.67682 26.1404 5.75591C26.0034 5.72911 26.0396 5.69047 26.1652 5.67153C25.8786 5.6743 25.9989 5.58711 25.8382 5.53689C26.0467 5.57719 24.8087 5.84085 25.5899 5.90398C25.649 5.96817 25.1948 6.02266 24.9086 5.99706L24.731 5.85554L24.3952 6.01572C24.061 6.01138 23.727 5.99002 23.3992 5.94047C23.7693 5.92887 24.2078 5.64692 23.2587 5.66388C23.5931 5.63985 23.9279 5.58746 24.2568 5.51788C24.0599 5.51765 23.9586 5.50326 24.2636 5.43863C23.5229 5.49588 24.0179 5.53342 23.2836 5.56248C23.3206 5.43307 23.1122 5.39278 22.4679 5.35645L22.9505 5.44468C22.9205 5.46081 22.8905 5.47693 22.8606 5.48171C23.0455 5.49293 23.099 5.51155 23.1403 5.56386C22.9971 5.56524 22.2911 5.73703 22.1665 5.65952C22.9166 5.85224 20.8816 5.83665 21.358 5.9474C21.1426 5.99769 20.9219 5.99108 20.7075 5.93926C21.3173 5.83269 20.2374 5.80033 20.3338 5.70674C20.1066 5.74533 20.8223 5.79516 20.5115 5.84826C20.225 5.85102 19.9448 5.81426 19.665 5.74912L19.8145 5.71955L19.248 5.66853C19.1578 5.73392 19.8021 5.76458 19.2824 5.81143C19.1454 5.78462 18.6197 5.83129 18.6381 5.78077C18.8837 5.68599 18.6998 5.57266 19.1418 5.54051C18.7716 5.55779 17.6014 5.59649 18.0778 5.70723L17.6361 5.71102C17.9162 5.75914 18.6912 5.83911 17.8075 5.88072L17.8138 5.85254L17.2039 5.96478L16.9359 5.90568C16.9475 5.94007 16.8517 5.97125 16.6249 5.9758C16.5656 5.93997 16.3448 5.92769 16.3633 5.87716C15.7006 5.89703 15.7596 5.96122 15.6756 6.0041C15.3054 6.02138 15.1684 6.00025 15.3363 5.91449C14.7573 5.93118 14.1784 5.92518 13.5999 5.88515C12.9248 5.95571 13.7429 5.90646 13.348 6.00812C12.7533 5.79168 11.1043 5.96925 10.0056 6.02145C10.3141 6.21228 9.70692 6.05222 9.51415 6.23371C9.74757 6.16693 8.45903 6.10562 9.4207 6.02662L8.82951 6.05997C8.41866 5.96254 9.80333 5.95864 9.18399 5.82091C8.56821 5.9273 7.94686 5.9938 7.31999 6.01474C7.57209 5.86907 6.72256 6.07628 6.90914 5.9173C7.10648 5.87782 7.30365 5.85535 7.50657 5.85576L7.36957 5.82896C5.91937 5.81955 6.95603 6.00383 6.20291 6.11745C5.31926 6.15339 5.49959 6.0226 5.44651 5.95859C5.16625 5.93317 4.89157 5.94764 4.62252 5.99632C5.15465 5.89877 5.62455 6.0604 5.37892 6.15518C4.86051 6.07155 4.3291 6.09535 3.82635 6.23917C5.0962 6.37937 4.70381 6.22574 5.89588 6.38631C6.05753 6.33441 6.02313 6.19151 6.73298 6.22981C6.29051 6.31302 6.76799 6.3103 6.89312 6.33107C6.75065 6.25303 7.38299 6.28333 7.59823 6.24439C7.80053 6.30719 7.18442 6.44762 7.90642 6.46358L8.03367 6.26878C8.31995 6.28871 7.91886 6.41289 8.5222 6.3572C8.2048 6.46685 8.62809 6.51358 7.81592 6.56302C8.7933 6.7058 9.29723 6.44284 10.0501 6.35191C9.97239 6.36661 9.9662 6.38912 9.88847 6.40381C10.1097 6.35937 10.3368 6.33213 10.5636 6.32758C11.0647 6.35962 10.1747 6.42374 10.3056 6.47306L11.1115 6.45181C11.1293 6.45802 11.1293 6.4637 11.1293 6.4637C11.2849 6.42296 11.458 6.4168 11.6188 6.45567C11.3853 6.52244 11.2892 6.58766 11.1335 6.64541L11.9705 6.49458C11.8803 6.55997 12.6738 6.58943 12.0764 6.65097L13.3243 6.59757L13.4364 6.72578C13.7351 6.695 13.7413 6.67249 13.3833 6.66176C13.8129 6.68031 15.266 6.38905 15.0545 6.6551C16.0346 6.52558 16.3864 6.55882 17.5749 6.46959C16.6663 6.61261 18.6301 6.59768 17.6624 6.6765C18.0444 6.6766 18.4208 6.63114 18.7917 6.54578C19.215 6.59251 19.0347 6.7233 18.5805 6.78346L19.1123 6.71428L19.1061 6.74247L19.5665 6.65979C20.0612 6.72569 19.6726 6.78782 20.1798 6.80302L20.2824 6.68692L20.6279 6.74835C20.4971 6.69903 20.7958 6.66826 21.16 6.65648L21.1538 6.68466L21.6016 6.65836C21.1592 6.7359 22.0133 6.67637 21.8095 6.76673C22.1914 6.76683 22.1974 6.76701 22.89 6.73669L22.7654 6.65919C23.6615 6.57822 22.8061 6.7739 23.5342 6.77302L23.4874 6.68083C24.5424 6.82026 25.267 6.56959 26.0421 6.65524C25.6001 6.68172 25.7125 6.78723 25.7247 6.75922C26.3936 6.71685 27.4797 6.7267 28.1672 6.60543C28.482 6.76808 28.8452 6.84706 29.1976 6.82357C29.717 6.81076 29.7887 6.79589 29.9566 6.7158C30.4462 6.69643 30.9355 6.71109 31.4243 6.76546C31.5385 6.68944 31.8778 6.77338 32.1471 6.70767L32.2064 6.7435L32.1596 6.6513C33.0529 6.84264 33.653 6.51447 34.5525 6.68329L34.4032 6.69584L34.7796 6.65605C34.8388 6.69755 34.6894 6.72144 34.671 6.77196L36.4197 6.76762L36.0742 6.70052C36.415 6.64831 36.7612 6.63599 37.1132 6.65221C36.4195 6.79599 37.6921 6.65253 37.8104 6.75823L37.434 6.79802C37.9474 6.78503 37.9474 6.78503 37.9006 6.69283C38.5634 6.65595 38.3644 6.86562 38.9742 6.75905L38.5386 6.75735C38.4078 6.70236 38.7189 6.62656 39.0113 6.62965C39.0828 6.64314 39.2913 6.68343 39.0644 6.69366C39.59 6.65266 40.3774 6.69896 40.6046 6.66037C40.8908 6.68597 40.8006 6.75136 40.6452 6.77508C41.7621 6.68938 41.1523 6.79028 42.2753 6.69909L42.2569 6.74961L42.6395 6.6873L43.1934 6.7947L42.9972 6.72639C43.3376 6.69688 43.6839 6.69023 44.024 6.70042L43.8501 6.78033C44.889 6.73202 45.0545 6.90154 46.0404 6.78922C46.1059 6.80253 45.9564 6.82643 45.8787 6.84112C46.7931 6.71531 46.5757 6.9755 47.4903 6.82132C47.4363 6.84808 47.5375 6.87948 47.5015 6.9011L47.9197 6.85121L47.8949 6.94694L48.2307 6.79244L48.4922 6.89675L48.6539 6.84484C49.1056 7.03997 49.7337 6.88855 50.353 7.03195L50.2468 6.90393C51.7835 6.61517 53.7848 7.03265 55.6481 6.9069L55.6172 7.00812L56.3882 6.90071C56.8052 6.9813 56.1426 6.98982 56.2734 7.04481C57.0976 6.98439 56.6151 6.89048 57.5704 6.85669C58.065 6.92826 57.4025 6.93678 57.1694 6.96951C58.119 6.9015 59.0741 6.87905 60.0287 6.91334C60.0408 6.90235 60.0828 6.88091 60.047 6.87416C60.6443 6.82964 61.4377 6.87044 62.0942 6.86741C62.0758 6.91793 61.9146 6.92445 61.7534 6.93097C62.0098 6.95568 62.2664 6.95202 62.5174 6.91982L62.2718 7.00893C62.8034 6.97379 63.3404 6.98421 63.871 7.0455C63.8117 7.004 63.8304 6.92512 64.272 6.93268C64.5151 7.09318 65.4603 6.86614 66.1637 6.94965C66.0798 6.98685 65.5665 6.99417 65.7097 6.99846C66.0377 7.01964 66.3663 6.98976 66.6833 6.91415L66.5932 6.97954L68.2294 6.88671C68.4785 7.04739 69.7695 6.85909 69.6609 6.975C70.2457 6.98118 69.1722 6.90361 69.9065 6.88589C70.1027 6.9542 70.5752 6.85486 70.5443 6.96175L70.4666 6.97078L70.98 6.96346L70.6567 7.06159C71.0986 7.04079 71.4278 6.94283 71.4465 6.86395C71.8523 6.87043 72.2578 6.90528 72.663 6.9685L72.5076 6.99222C73.6897 6.95387 74.4743 7.27814 75.401 7.1073C75.4725 7.12079 75.4603 7.1488 75.3171 7.14451L76.0511 7.15515L75.8773 7.22939L77.084 7.11234L77.0716 7.16304C77.8711 7.187 79.1187 7.16196 80.1454 7.15301L79.9899 7.17672C81.1127 7.10255 81.0756 7.23196 81.8938 7.17703C81.8698 7.18766 81.8399 7.19811 81.81 7.19722L82.5501 7.1967L82.3885 7.2486C82.8005 7.2269 83.2062 7.24473 83.6174 7.30245C83.934 7.27222 84.2449 7.21344 84.5501 7.13179C85.3559 7.12756 84.7464 7.20009 85.2473 7.24348C85.8321 7.24966 85.9285 7.16175 86.7218 7.20822L86.7094 7.25892C87.0795 7.25299 87.3066 7.2144 87.8199 7.21276L87.6645 7.23647C88.5011 7.13103 88.7133 7.39842 89.3661 7.17397C89.7178 7.21856 90.3865 7.1932 90.3556 7.29442C91.4007 7.23494 92.2126 7.2082 93.2514 7.17691C93.4228 7.34661 93.4723 7.16651 94.1039 7.27056L94.0571 7.17836C95.5253 7.17696 97.212 7.41477 98.8296 7.38947L98.8765 7.48167L99.1997 7.38354C100.942 7.44142 103.197 7.48632 104.588 7.50529C105.203 7.42159 105.83 7.38364 106.457 7.40241L106.379 7.4171C107.639 7.37541 108.964 7.3527 110.336 7.42219C110.252 7.4594 110.389 7.4862 110.234 7.50992C110.598 7.45842 110.968 7.46384 111.332 7.52013L110.986 7.44735C111.369 7.39072 111.763 7.41387 112.138 7.52157L112.753 7.42653C112.795 7.43345 112.854 7.45226 112.866 7.46396L112.974 7.41613L113.301 7.53942C113.713 7.52339 114.125 7.47333 114.526 7.38319C114.585 7.42469 115.164 7.45905 114.716 7.47968L116.972 7.5416L116.62 7.49701C116.573 7.40481 117.254 7.35712 117.6 7.40153C117.139 7.47285 117.563 7.53093 117.759 7.59924C118.064 7.55163 117.491 7.51744 117.653 7.46554C118.119 7.40574 118.59 7.3915 119.056 7.42814L118.829 7.46105C119.354 7.4314 119.597 7.59758 120.11 7.59026C120.571 7.51894 120.916 7.59738 120.816 7.4355C121.485 7.41014 121.078 7.54548 121.292 7.56326C121.747 7.5031 122.212 7.5284 122.664 7.63275C123.031 7.40539 124.466 7.73781 124.605 7.54904L125.153 7.6676C125.171 7.61708 125.28 7.50117 125.722 7.48603C126.139 7.54961 126.042 7.63751 126.173 7.6925L126.456 7.50235C128.876 7.74514 132.064 7.64774 134.718 7.85211C135.9 7.82511 137.393 7.76202 138.771 7.81467L138.616 7.83839L139.987 7.91355L138.992 7.80994C139.29 7.79052 139.524 7.75778 139.816 7.76654C141.605 7.91662 143.401 7.97044 145.192 7.93331C146.393 7.73099 145.989 8.14448 147.143 7.99745C147.047 8.01729 147.005 8.05007 146.921 8.07026C148.163 8.01668 148.832 7.99132 150.074 7.88102C149.935 8.09815 150.88 7.88814 150.771 8.00405L150.874 7.91632C151.148 7.97561 151.798 8.00644 151.708 8.07183L152.258 7.96915L152.305 8.06135C153.032 8.08316 154.591 8.03906 154.971 8.23204C156.768 8.12702 159.608 8.22347 161.863 8.30241C162.359 8.2435 162.855 8.2243 163.356 8.23932L163.904 8.35788C164.424 8.28267 164.943 8.26419 165.468 8.29127C165.468 8.30262 165.444 8.31325 165.408 8.31785C165.921 8.34457 166.435 8.33726 166.942 8.28438C167.527 8.3019 168.093 8.37562 167.913 8.47237C167.969 8.29244 169.148 8.5264 169.148 8.5264C169.148 8.5264 176.63 8.81869 185.025 9.00786C193.421 9.19704 202.73 9.31712 206.38 8.96686C206.59 8.88802 207.193 8.85502 206.979 8.7408C207.152 8.73464 207.331 8.75135 207.498 8.79607C207.545 8.80884 207.593 8.81595 207.641 8.82305C207.659 8.82359 207.676 8.82412 207.694 8.81899C207.7 8.81917 207.712 8.81385 207.718 8.81403L207.73 8.80871L207.736 8.80322C207.798 8.60645 207.854 8.40951 207.915 8.20707C207.86 8.38699 207.804 8.57259 207.755 8.7527C207.736 8.82024 207.742 8.79205 207.742 8.79772L207.73 8.79737L207.718 8.79701L207.695 8.79629L207.647 8.78919C207.623 8.7828 207.599 8.78209 207.576 8.77003C207.54 8.75761 207.522 8.74572 207.51 8.73402C207.493 8.70512 207.529 8.67783 207.559 8.65036C207.625 8.58992 207.703 8.52417 207.382 8.45778L207.811 8.45364C207.913 8.39428 207.214 8.49816 207.346 8.39431L207.196 8.55435C206.975 8.54207 206.761 8.49592 206.558 8.41042C206.127 8.57908 205.655 8.62736 205.19 8.55668L205.417 8.55213C204.755 8.53795 205.012 8.43218 204.876 8.39971L205.025 8.40418L204.471 8.30245C204.894 8.37188 205.593 8.26232 205.229 8.25708C204.442 8.18243 205.432 8.30287 204.841 8.30786C204.471 8.30245 204.579 8.22058 204.591 8.1642L203.929 8.15003C203.954 8.07132 204.365 8.16875 204.097 8.08129L203.261 8.13568C203.108 7.93247 202.353 8.19927 201.979 8.00079C202.576 7.97329 201.926 7.93111 202.022 7.87157L200.554 7.83893C200.417 7.80645 200.943 7.78814 200.716 7.7927C200.513 7.7696 200.31 7.78054 200.113 7.82002C199.988 7.76521 199.021 7.79297 199.058 7.66357C198.062 7.54861 198.639 7.81557 197.708 7.71393C197.59 7.63093 198.443 7.71323 198.032 7.62147L197.071 7.62105C197.233 7.52943 197.43 7.49562 197.621 7.52403C195.02 7.34396 193.622 6.89349 191.241 6.93561C190.907 6.83483 191.48 6.88036 191.719 6.8251C189.994 6.90391 189.299 6.55396 187.831 6.52699L187.806 6.6057C185.762 6.31177 183.302 6.40262 180.994 6.24266L181.268 6.30194C180.868 6.35237 180.461 6.38559 180.055 6.39045C179.996 6.34895 180.332 6.22849 179.663 6.24817C179.8 6.28065 180.086 6.3176 180.002 6.34913C178.017 6.09671 173.828 6.05628 170.571 5.89058C166.161 5.84921 161.377 5.60937 157.044 5.576C157.706 5.58451 157.424 5.76898 156.923 5.71425C155.56 5.36129 154.566 5.72305 153.172 5.47698C150.646 5.53183 148.394 5.21463 146.046 5.42801L145.999 5.33581C145.725 5.31624 145.456 5.31954 145.187 5.3512L145.193 5.32302C144.323 5.27422 143.271 5.35054 142.771 5.29581L142.74 5.39703C142.221 5.39849 142.472 5.31523 141.94 5.36172L141.953 5.31102L141.337 5.40039C141.399 5.22064 139.881 5.36244 139.464 5.2705C138.796 5.29019 137.53 5.34872 136.516 5.29563C135.777 5.19404 135.037 5.13783 134.291 5.12682C132.746 5.13157 130.543 5.128 128.58 5.06917L128.615 5.18938L128.102 5.19102C128.108 5.16283 128.042 5.14952 128.114 5.14032C127.716 5.00353 126.932 5.16732 126.515 5.07538C126.777 5.18536 126.873 5.09746 127.166 5.10622C127.589 5.16997 127.188 5.27712 126.615 5.2089L126.628 5.18089L126.239 5.23735C126.198 5.14533 125.841 5.09489 125.8 5.00287C124.111 5.00332 122.963 5.14486 121.221 5.07563C121.401 4.9732 119.968 5.08346 120.316 4.9123C119.271 4.9661 120.488 5.05931 120.015 5.18133C119.722 5.17257 119.418 5.22018 119.365 5.15617C119.502 5.1149 119.127 5.04691 119.366 5.03137L118.667 5.03881C118.602 5.0255 118.757 5.00178 118.829 4.99258C117.408 5.08051 116.3 4.84869 115.028 4.94109C114.932 5.0063 115.535 4.96763 115.445 5.02735C114.16 5.14208 114.306 4.90243 113.112 4.98013L113.357 4.8967C112.968 4.98719 112.562 5.00907 112.163 4.9517C112.051 4.84619 112.701 4.87135 113.006 4.82374C112.57 4.81636 111.46 4.82849 111.799 4.92945C111.465 4.94213 111.131 4.90942 110.797 4.83134C110.791 4.85952 111.286 4.9084 110.981 4.95034C110.266 4.8835 109.168 4.87329 108.296 4.85853C108.303 4.83035 108.243 4.79452 108.321 4.77983C107.621 4.91208 107.695 4.67596 106.728 4.69237" fill="#003383"/>
<path d="M60.2992 5.31097L60.6515 5.33065C60.6517 5.30301 60.6639 5.26889 60.8254 5.24018L60.2992 5.31097Z" fill="#003383"/>
<path d="M76.9915 5.1036C77.0334 5.09803 77.0753 5.08533 77.1174 5.06548C77.0276 5.0764 77.0036 5.08978 76.9915 5.1036Z" fill="#003383"/>
<path d="M81.0408 4.81274C80.7535 4.8378 81.0104 4.87611 81.1537 4.91016C81.1599 4.88172 81.1542 4.84566 81.0408 4.81274Z" fill="#003383"/>
<path d="M50.8517 5.89301C50.9117 5.8807 50.9479 5.86018 50.9421 5.83076C50.858 5.85675 50.8399 5.87066 50.8517 5.89301Z" fill="#003383"/>
<path d="M24.7249 6.60895L24.8322 6.62618C24.7964 6.6182 24.7607 6.61021 24.7249 6.60895Z" fill="#003383"/>
<path d="M26.1786 6.77046C26.2801 6.76735 26.3756 6.76403 26.4713 6.74737C26.3698 6.74381 26.2742 6.7538 26.1786 6.77046Z" fill="#003383"/>
<path d="M57.1854 5.68891C57.275 5.68526 57.3707 5.67493 57.4605 5.65062C57.3649 5.64716 57.2752 5.6577 57.1854 5.68891Z" fill="#003383"/>
<path d="M26.7702 6.70005L27.1343 6.706C27.1344 6.69949 27.1404 6.69318 27.1405 6.68015L26.7702 6.70005Z" fill="#003383"/>
<path d="M24.2594 6.60888C24.4027 6.60737 24.5937 6.6074 24.7189 6.61762C24.57 6.58816 24.4148 6.58313 24.2594 6.60888Z" fill="#003383"/>
<path d="M41.2629 6.33025L41.3048 6.32476C41.5861 6.2648 41.4066 6.29335 41.2629 6.33025Z" fill="#003383"/>
<path d="M28.3615 6.40732L28.4093 6.40909L28.5172 6.37068L28.3615 6.40732Z" fill="#003383"/>
<path d="M22.6901 6.61521C22.7498 6.61044 22.8096 6.60567 22.8695 6.58701L22.6605 6.57245C22.6783 6.59394 22.6842 6.6011 22.6901 6.61521Z" fill="#003383"/>
<path d="M35.792 6.27147C35.6897 6.32601 35.6535 6.36115 35.6473 6.38283C35.7672 6.38009 35.8453 6.35385 35.792 6.27147Z" fill="#003383"/>
<g opacity="0.26">
<g opacity="0.26">
<g opacity="0.26">
<g opacity="0.26">
<path opacity="0.26" d="M31.4249 8.11432C31.4067 8.12851 31.3945 8.15033 31.3882 8.17977C31.4186 8.15118 31.4248 8.12915 31.4249 8.11432Z" fill="#003383"/>
<path opacity="0.26" d="M47.5009 8.03238L47.3155 8.06117C47.3812 8.06339 47.447 8.05159 47.5009 8.03238Z" fill="#003383"/>
<path opacity="0.26" d="M21.7859 8.29979C21.7919 8.29387 21.8038 8.29422 21.8099 8.2883L21.1355 8.29281L21.7859 8.29979Z" fill="#003383"/>
<path opacity="0.26" d="M81.8015 7.81278L81.5867 7.81255C81.6583 7.81459 81.7299 7.81664 81.8015 7.81278Z" fill="#003383"/>
<path opacity="0.26" d="M61.4718 7.84572C61.5616 7.82066 61.6514 7.80262 61.7469 7.80585C61.6515 7.78857 61.5618 7.79958 61.4718 7.84572Z" fill="#003383"/>
<path opacity="0.26" d="M16.6631 7.17883L16.9432 7.25953C16.9315 7.22358 16.8363 7.18477 16.6631 7.17883Z" fill="#003383"/>
<path opacity="0.26" d="M6.90234 8.00262C6.90826 8.01009 6.92016 8.01777 6.92614 8.01798C6.94407 8.01861 6.9262 8.01072 6.90234 8.00262Z" fill="#003383"/>
<path opacity="0.26" d="M10.7306 8.18533C10.8143 8.17409 10.91 8.15622 11.0057 8.13835C10.8863 8.14134 10.7428 8.15055 10.7306 8.18533Z" fill="#003383"/>
<path opacity="0.26" d="M11.1375 8.10945L11.0059 8.1332C11.0776 8.12858 11.1374 8.12356 11.1375 8.10945Z" fill="#003383"/>
<path opacity="0.26" d="M206.367 7.8246C206.593 7.83218 206.821 7.80513 207.042 7.74325L206.367 7.8246Z" fill="#003383"/>
<path opacity="0.26" d="M112.85 7.59866L112.79 7.63303C112.85 7.62054 112.862 7.60637 112.85 7.59866Z" fill="#003383"/>
<path opacity="0.26" d="M206.717 7.06274L206.908 7.08923C206.842 7.07358 206.777 7.06469 206.717 7.06274Z" fill="#003383"/>
<path opacity="0.26" d="M21.8312 6.70321C22.1126 6.61665 22.6909 6.70424 22.6857 6.6219C22.387 6.63941 21.9635 6.59118 21.8312 6.70321Z" fill="#003383"/>
<path opacity="0.26" d="M119.412 4.22965L119.597 4.22899C119.507 4.21998 119.454 4.22464 119.412 4.22965Z" fill="#003383"/>
<path opacity="0.26" d="M206.717 7.06371L206.497 7.0282C206.514 7.04283 206.538 7.05766 206.562 7.07248C206.61 7.06709 206.664 7.0619 206.717 7.06371Z" fill="#003383"/>
<path opacity="0.26" d="M145.191 7.62975L145.179 7.62935L145.113 7.64112L145.191 7.62975Z" fill="#003383"/>
<path opacity="0.26" d="M146.901 7.7814L146.537 7.80316C146.656 7.81375 146.781 7.8111 146.901 7.7814Z" fill="#003383"/>
<path opacity="0.26" d="M207.042 7.73023L207.437 7.68098C207.305 7.68352 207.174 7.69994 207.042 7.73023Z" fill="#003383"/>
<path opacity="0.26" d="M165.393 7.76179L165.226 7.76965C165.279 7.77136 165.339 7.77326 165.393 7.76179Z" fill="#003383"/>
<path opacity="0.26" d="M60.1715 7.82228L60.0224 7.80343C60.0043 7.82362 60.0161 7.83788 60.1715 7.82228Z" fill="#003383"/>
<path opacity="0.26" d="M72.2402 5.34127C72.4731 5.34914 72.7003 5.3148 72.922 5.23826C72.6891 5.2304 72.4619 5.26473 72.2402 5.34127Z" fill="#003383"/>
<path opacity="0.26" d="M74.3837 5.25339L74.3062 5.24426C74.33 5.25167 74.3598 5.25262 74.3837 5.25339Z" fill="#003383"/>
<path opacity="0.26" d="M60.6527 5.32727L60.6526 5.33466C60.6587 5.33487 60.6587 5.32748 60.6587 5.32748L60.6527 5.32727Z" fill="#003383"/>
<path opacity="0.26" d="M63.3745 5.25818C63.4341 5.27396 63.4996 5.28995 63.5653 5.29213C63.4997 5.27615 63.4341 5.26707 63.3745 5.25818Z" fill="#003383"/>
<path opacity="0.26" d="M81.1549 4.90427C81.1489 4.90406 81.1488 4.91131 81.1549 4.90427L81.1668 4.91194L81.1549 4.90427Z" fill="#003383"/>
<path opacity="0.26" d="M106.768 4.57901C104.196 4.59421 100.864 4.72414 98.3105 4.67456C97.593 4.79644 96.8643 4.85862 96.1363 4.84366L96.0488 4.65119L95.3738 4.70898C95.0999 4.64769 95.8934 4.6764 95.4048 4.60301L95.1529 4.72044C95.0999 4.65362 93.4108 4.66449 94.5461 4.53681L91.9142 4.52655C91.3295 4.5157 91.5784 4.68312 90.9343 4.63495C90.8036 4.57777 91.1675 4.60009 91.1085 4.52716C89.1705 4.37654 88.8786 4.89055 87.0773 4.79135L87.2327 4.76613C86.9278 4.81674 86.343 4.81182 86.3368 4.83539C86.5734 5.03215 86.6601 4.73188 87.208 4.84853C87.1645 5.0135 86.5207 4.93565 86.5612 5.06147C86.2153 5.03967 85.869 5.05347 85.5223 5.10288C84.8967 5.00182 83.9948 5.0709 83.5187 4.94444C83.0936 5.06878 82.6572 5.14529 82.2094 5.16212C81.7333 5.03566 82.3181 5.04057 81.674 4.9924L81.5715 5.09038C81.0405 5.07513 81.1244 5.04786 81.1427 5.00683C80.7542 5.06098 80.3601 5.08528 79.9663 5.07397L80.3611 4.98439C79.8355 5.02273 79.6209 5.00469 78.8929 4.99566C78.9053 4.9426 79.1978 4.94505 79.4184 4.96326C79.02 4.82123 78.7434 5.02105 78.5287 5.00895C78.5879 5.05221 79.095 5.06677 78.8493 5.16063C78.4855 5.14425 78.0781 5.2869 77.8226 5.17865L78.2175 5.08906C77.7988 5.17203 77.3748 5.20141 76.9514 5.17144C76.9992 5.16688 76.9755 5.14245 76.9937 5.11923C76.3067 5.18261 75.6084 5.18631 74.9168 5.11897L75.0722 5.09375C74.7436 5.12587 74.5697 5.20992 74.3907 5.20478C74.8556 5.25968 74.73 5.28576 74.7708 5.37597C74.1578 5.2159 73.8439 5.55713 72.8422 5.46307C72.8547 5.41001 73.0941 5.34564 73.374 5.40117C73.6627 5.19575 74.0042 5.06902 74.3567 5.03165C73.9803 5.06833 73.5325 5.0911 73.6287 5.02262L73.5137 5.17366C73.2869 5.17902 73.102 5.16778 72.9289 5.16875C72.8324 5.26096 73.3928 5.32454 72.8669 5.38661C72.2696 5.43476 72.5462 5.23493 72.456 5.29764C71.6318 5.35709 72.1201 5.46015 71.3269 5.4077C71.4226 5.3867 71.5242 5.37774 71.6255 5.38659C71.0532 5.3286 70.2287 5.41179 70.0575 5.23472C70.1478 5.16607 70.2615 5.13372 70.3747 5.15478L70.3448 5.15986C70.9668 5.02931 69.8252 5.19243 70.0179 5.03175C70.0646 5.12807 69.2651 5.10512 68.9012 5.09467L69.0194 5.20491C67.8282 5.53877 69.0814 4.98705 67.8932 5.03605C67.1404 5.11535 68.1793 5.06801 67.719 5.14384C67.2422 5.08266 66.759 5.06285 66.2754 5.07865C66.067 5.03704 65.6439 4.97741 65.6033 4.85752C65.0604 4.84193 64.517 4.86788 63.9733 4.92944C64.7481 5.02886 64.7386 4.79707 65.6441 4.95367L65.3921 5.07703C64.7656 5.07092 63.9651 5.13698 63.5359 5.09498C63.6252 5.11535 63.6606 5.15198 63.6066 5.17418C62.9433 5.26199 62.2684 5.30791 61.5939 5.31229C61.4757 5.20205 61.9829 5.21661 62.353 5.20942C61.87 5.16588 61.3867 5.152 60.9031 5.17373C60.8564 5.07741 61.4879 5.17865 61.5844 5.0805L60.6232 5.11227C60.6293 5.10651 60.6234 5.1004 60.6234 5.09447C60.4904 5.25687 59.8895 5.08527 59.3041 5.13376C58.5222 5.13506 57.7213 5.25454 56.9609 5.48203C56.7525 5.44043 56.6932 5.39718 56.7772 5.35803C57.1226 5.42731 57.0576 5.37202 57.1774 5.32797C56.7057 5.34411 56.1465 5.17371 56.4098 5.11003C55.6633 5.15983 56.6834 5.19506 56.2233 5.24715L55.2028 5.2416C55.3273 5.32234 55.6852 5.33856 55.1593 5.40656C54.7115 5.42933 54.4968 5.41722 53.9179 5.41248C54.0019 5.37333 53.7282 5.28831 54.1699 5.28911C53.8719 5.24494 53.5673 5.26588 53.2801 5.3348C53.918 5.40654 52.2349 5.41165 52.717 5.53828L52.0672 5.47213C52.2104 5.47031 52.2289 5.41741 52.4436 5.42951C52.2599 5.30551 51.924 5.46802 51.703 5.48542C51.4165 5.48314 51.1303 5.45711 50.8444 5.40735C50.5814 5.44729 50.313 5.42771 50.0571 5.361C49.7584 5.38804 50.0323 5.4434 49.9484 5.48254L48.9278 5.48292C48.8688 5.41593 48.7814 5.22346 48.9368 5.19824C48.5541 5.26442 48.8033 5.40218 48.2244 5.40336C48.5541 5.26442 47.4496 5.30988 47.9287 5.14555C47.3268 5.06297 46.7183 5.0455 46.1149 5.10535C45.7914 5.21479 46.6872 5.16333 46.6503 5.26913C45.1756 5.32177 45.0889 5.62203 44.0091 5.57916L44.2893 5.60501C43.9549 5.61916 43.6262 5.66908 43.303 5.75479C43.4835 5.6175 42.5249 5.40001 41.4204 5.43954C41.3302 5.50818 42.0457 5.56435 41.8656 5.67196L41.1372 5.69854C41.0835 5.69107 41.1614 5.66362 41.2571 5.64856C40.6 5.70093 40.0234 5.48254 39.8367 5.6434L39.1584 5.45177L39.4261 5.53069C39.1032 5.59266 38.7745 5.63665 38.4461 5.65096C37.9678 5.72628 37.4727 5.70613 36.9964 5.59747C37.1271 5.65465 37.46 5.777 36.8689 5.80158C36.8712 5.582 35.6223 5.73017 35.6354 5.6237C35.3966 5.62871 34.9675 5.5689 34.9426 5.66317L34.9799 5.52771C34.9301 5.71624 34.0527 5.72667 33.3839 5.76683C33.5299 5.50389 32.6495 5.79917 32.3415 5.57069C32.2203 5.75123 31.1529 5.66122 31.0439 5.81244C30.5245 5.82721 30.5739 5.66835 30.4432 5.61117L30.2038 5.68146C29.942 5.60271 28.9751 5.61057 28.3967 5.56428L27.8638 5.72707L27.6616 5.66191C27.5776 5.70105 27.1356 5.73585 27.4096 5.78527L27.1232 5.78298C27.1034 5.95457 26.7168 5.83661 26.137 5.92089C26 5.89321 26.0362 5.85269 26.1618 5.83255C25.8753 5.8362 25.9956 5.74467 25.835 5.69257C26.0434 5.73418 24.8051 6.01325 25.5863 6.07723C25.6452 6.14422 25.191 6.20242 24.9048 6.17639L24.7274 6.02882L24.3914 6.19727C24.0572 6.19361 23.7232 6.17215 23.3955 6.12119C23.7657 6.10807 24.2045 5.81198 23.2553 5.83222C23.5898 5.8062 23.9246 5.75052 24.2536 5.67685C24.0567 5.67714 23.9554 5.66236 24.2605 5.59394C23.5198 5.65579 24.0147 5.69374 23.2803 5.72608C23.3175 5.59062 23.1091 5.54901 22.4649 5.51271L22.9474 5.60373C22.9174 5.62068 22.8873 5.63763 22.8574 5.64271C23.0423 5.65395 23.0958 5.6733 23.137 5.72791C22.9938 5.72973 22.2876 5.91129 22.1632 5.83055C22.913 6.03016 20.878 6.01923 21.3543 6.13382C21.1389 6.187 20.9181 6.18066 20.7038 6.12702C21.3138 6.01393 20.2339 5.98293 20.3304 5.88478C20.1032 5.92575 20.8188 5.97598 20.5079 6.03235C20.2214 6.03599 19.9413 5.99827 19.6615 5.93088L19.811 5.89955L19.2446 5.84767C19.1543 5.91632 19.7986 5.94668 19.2788 5.99706C19.1418 5.96938 18.6161 6.01959 18.6346 5.96669C18.8803 5.86689 18.6966 5.74883 19.1386 5.71403C18.7683 5.73308 17.5981 5.77666 18.0744 5.89125L17.6327 5.89637C17.9127 5.94597 18.6876 6.02758 17.8039 6.07344L17.8102 6.04394L17.2061 6.16314L16.9382 6.10202C16.9498 6.13797 16.8539 6.17083 16.6271 6.17619C16.5678 6.13887 16.3471 6.1266 16.3656 6.0737C15.7029 6.09623 15.7618 6.16322 15.6778 6.2083C15.3076 6.22736 15.1706 6.20561 15.3386 6.11546C14.7595 6.13445 14.1806 6.1297 13.6022 6.08935C12.927 6.16495 13.7452 6.11126 13.3501 6.21865C12.7557 5.99381 11.1065 6.18392 10.0078 6.24142C10.316 6.44023 9.70901 6.27439 9.51006 6.46458C9.74368 6.38224 8.44925 6.32133 9.41698 6.23633L8.82575 6.27278C8.42098 6.17211 9.7997 6.16421 9.18051 6.02177C8.56461 6.13468 7.94317 6.20589 7.31628 6.22944C7.56855 6.07641 6.71877 6.2954 6.90554 6.12861C7.10293 6.08678 7.30013 6.06276 7.50305 6.06265L7.3601 6.0348C5.90992 6.02879 6.95233 6.21899 6.19907 6.33984C5.31537 6.37977 5.49586 6.24248 5.43689 6.17549C5.16847 6.16184 4.89377 6.1777 4.62466 6.22934C5.16288 6.12607 5.62662 6.29372 5.38088 6.39352C4.86256 6.30741 4.33709 6.33387 3.83417 6.48565C5.10386 6.62896 4.71159 6.47523 5.90353 6.63411C6.06525 6.57939 6.03102 6.43 6.74082 6.46818C6.29825 6.55639 6.77574 6.55229 6.90084 6.5737C6.76443 6.49261 7.39674 6.52263 7.61202 6.48132C7.81425 6.54649 7.19797 6.69502 7.91996 6.70981L8.04744 6.5057C8.32176 6.52544 7.92649 6.65657 8.52399 6.59061C8.20646 6.70616 8.6297 6.75393 7.82343 6.80795C8.80065 6.95474 9.30489 6.67833 10.0579 6.58123C9.98014 6.5968 9.97393 6.62037 9.89618 6.63595C10.1175 6.58887 10.3446 6.55977 10.5714 6.55441C11.0724 6.58661 10.1824 6.65604 10.3132 6.70728L11.1191 6.68293C11.137 6.68938 11.1369 6.69531 11.1369 6.69531C11.2925 6.65229 11.4657 6.64539 11.6264 6.68562C11.3929 6.75609 11.2967 6.82456 11.1409 6.88539L11.9781 6.7254C11.8879 6.79404 12.6813 6.82276 12.0838 6.88871L13.3318 6.82956L13.4437 6.96337C13.7425 6.9304 13.7487 6.90683 13.3907 6.89655C13.8203 6.91482 15.2738 6.60631 15.0619 6.88517C16.0422 6.74709 16.3939 6.78094 17.5826 6.68447C16.6738 6.83647 18.6376 6.81567 17.6698 6.90068C18.0518 6.89977 18.4283 6.85122 18.7993 6.76095C19.2225 6.80872 19.042 6.94601 18.5878 7.01014L19.1197 6.93637L19.1134 6.96587L19.5739 6.87817C20.0685 6.9458 19.6799 7.01181 20.187 7.02637L20.2898 6.90466L20.6353 6.96801C20.5045 6.91676 20.8033 6.88378 21.1675 6.87049L21.1612 6.9L21.6091 6.8713C21.1666 6.95358 22.0207 6.88905 21.8168 6.98412C22.1988 6.98321 22.2047 6.98338 22.8974 6.94984L22.7729 6.8691C23.669 6.78203 22.8134 6.98899 23.5415 6.98614L23.4948 6.88982C24.5497 7.0329 25.2746 6.76877 26.0495 6.85631C25.6076 6.88518 25.7198 6.99525 25.7321 6.96592C26.401 6.91983 27.4871 6.92727 28.1748 6.7986C28.4893 6.96791 28.8525 7.04958 29.2049 7.02407C29.7243 7.0093 29.796 6.99356 29.964 6.90933C30.4536 6.88777 30.9429 6.90182 31.4317 6.95741C31.5459 6.87758 31.8852 6.96449 32.1545 6.89505L32.2138 6.93237L32.167 6.83605C33.0602 7.03384 33.6606 6.68896 34.56 6.86319L34.4045 6.89435L34.7809 6.85173C34.8401 6.89498 34.6907 6.92037 34.6722 6.97327L36.421 6.96411L36.0755 6.89483C36.4163 6.83931 36.7626 6.82551 37.1145 6.84155C36.4206 6.99378 37.6935 6.84036 37.8117 6.95061L37.4352 6.99323C37.9486 6.97829 37.9486 6.97829 37.9019 6.88197C38.5648 6.84163 38.3655 7.06149 38.9755 6.94841L38.5398 6.94777C38.4091 6.89059 38.7203 6.81048 39.0127 6.81294C39.0842 6.82686 39.2926 6.86847 39.0657 6.87976C39.5914 6.83549 40.3787 6.88184 40.6059 6.84087C40.8921 6.8669 40.8018 6.93554 40.6464 6.96076C41.7634 6.86817 41.1535 6.97532 42.2766 6.87696L42.2581 6.92986L42.6408 6.86367L43.1946 6.97456L42.9984 6.90362C43.339 6.87185 43.6852 6.86398 44.0253 6.87374L43.8513 6.95779C44.8903 6.90451 45.0556 7.08141 46.0416 6.96131C46.1071 6.97506 45.9576 7.00045 45.8799 7.01603C46.7944 6.882 46.5767 7.15476 47.4915 6.99106C47.4375 7.01919 47.5386 7.05178 47.5026 7.07449L47.9209 7.0212L47.8899 7.1331L48.2258 6.97059L48.4873 7.07901L48.649 7.02429C49.1004 7.22722 49.7287 7.06717 50.3479 7.21554L50.2418 7.0819C51.7789 6.77578 53.7796 7.20721 55.6431 7.07075L55.6121 7.17671L56.3832 7.06232C56.8001 7.14552 56.1376 7.15618 56.2682 7.21336C57.0925 7.14798 56.6101 7.05102 57.5654 7.01315C58.06 7.08671 57.3974 7.09737 57.1643 7.13223C58.114 7.05858 59.0692 7.03258 60.0237 7.06592C60.0358 7.05439 60.0778 7.03185 60.0421 7.02489C60.6394 6.97674 61.4327 7.01732 62.0893 7.01243C62.0708 7.06532 61.9096 7.07257 61.7484 7.07981C62.0047 7.10498 62.2614 7.10048 62.5124 7.06613L62.2668 7.15999C62.7983 7.12183 63.3353 7.13131 63.8658 7.19403C63.8066 7.15078 63.8254 7.06821 64.267 7.07495C64.5099 7.2422 65.4554 7.00221 66.1587 7.08771C66.0748 7.12685 65.5614 7.13586 65.7046 7.13997C66.0326 7.16126 66.3612 7.12914 66.6784 7.0492L66.5881 7.11784L68.2244 7.01641C68.4733 7.18384 69.7646 6.98346 69.6559 7.105C70.2407 7.10992 69.1672 7.03161 69.9015 7.01113C70.0977 7.08207 70.5703 6.97691 70.5393 7.08881L70.4616 7.09845L70.975 7.08944L70.6516 7.19295C71.0935 7.17002 71.4228 7.06668 71.4416 6.98411C71.8474 6.98983 72.2528 7.02521 72.658 7.09027L72.5025 7.11549C73.6847 7.07226 74.4689 7.4094 75.3959 7.22824C75.4673 7.24216 75.4551 7.27149 75.3119 7.26738L76.0459 7.27658L75.872 7.3547L77.0789 7.22907L77.0664 7.28213C77.8659 7.30509 79.1135 7.27561 80.1401 7.26353L79.9847 7.28875C81.1076 7.20819 81.0703 7.34366 81.8886 7.28404C81.8646 7.29523 81.8346 7.30624 81.8048 7.30538L82.5449 7.30288L82.3832 7.3576C82.7952 7.33382 83.2009 7.3514 83.612 7.41069C83.9287 7.37823 84.2397 7.31592 84.545 7.22971C85.3507 7.22316 84.7412 7.30064 85.242 7.3447C85.8268 7.34962 85.9233 7.25741 86.7166 7.30393L86.7041 7.35699C87.0742 7.34981 87.3014 7.30884 87.8147 7.30577L87.6592 7.33099C88.496 7.21848 88.7079 7.49763 89.3609 7.26112C89.7125 7.30683 90.3813 7.27854 90.3503 7.3845C91.3954 7.31953 92.2074 7.28941 93.2462 7.25394C93.4174 7.43101 93.4671 7.24247 94.0986 7.34965L94.0519 7.25332C95.5201 7.24798 97.2065 7.4923 98.8242 7.46157L98.8709 7.55789L99.1943 7.45439C100.936 7.51034 103.192 7.55135 104.582 7.56752C105.198 7.47834 105.825 7.43698 106.452 7.45497L106.374 7.47054C107.634 7.4236 108.959 7.39635 110.331 7.46542C110.247 7.50456 110.384 7.53224 110.228 7.55746C110.593 7.50263 110.963 7.50731 111.326 7.56524L110.981 7.49002C111.364 7.42977 111.757 7.45295 112.132 7.56462L112.748 7.46358C112.789 7.47071 112.849 7.49023 112.861 7.50244L112.969 7.45211L113.296 7.58022C113.708 7.56237 114.12 7.50891 114.521 7.41356C114.58 7.45682 115.159 7.49124 114.711 7.514L116.966 7.57281L116.614 7.5271C116.568 7.43077 117.249 7.37909 117.594 7.42463C117.134 7.50046 117.557 7.5601 117.753 7.63103C118.058 7.58042 117.486 7.54617 117.647 7.49145C118.113 7.42766 118.585 7.41152 119.05 7.44862L118.823 7.48365C119.349 7.45125 119.591 7.62444 120.105 7.61543C120.565 7.5396 120.91 7.62075 120.811 7.45168C121.48 7.42338 121.072 7.56603 121.287 7.58407C121.741 7.51994 122.206 7.54517 122.659 7.65314C123.025 7.41434 124.46 7.75828 124.599 7.56044L125.147 7.68302C125.166 7.63013 125.274 7.50859 125.716 7.49159C126.133 7.55699 126.037 7.6492 126.167 7.70638L126.45 7.50672C128.871 7.7543 132.059 7.644 134.712 7.85078C135.894 7.81942 137.387 7.74948 138.765 7.80092L138.61 7.82614L139.982 7.90114L138.986 7.79539C139.285 7.77428 139.518 7.73942 139.81 7.74781C141.599 7.90009 143.395 7.95165 145.186 7.90808C146.388 7.69326 145.983 8.12687 147.137 7.97003C147.041 7.99102 146.999 8.02543 146.915 8.04677C148.157 7.98745 148.826 7.95916 150.068 7.84049C149.929 8.068 150.874 7.84581 150.765 7.96735L150.868 7.87531C151.142 7.9366 151.792 7.96714 151.702 8.03578L152.252 7.92692L152.298 8.02324C153.026 8.04414 154.585 7.99389 154.964 8.19476C156.762 8.08015 159.602 8.17356 161.857 8.25017C162.353 8.18724 162.849 8.16585 163.35 8.18024L163.898 8.30282C164.418 8.22277 164.937 8.20206 165.462 8.22901C165.462 8.24088 165.438 8.25206 165.402 8.25697C165.915 8.28357 166.428 8.27456 166.936 8.21791C167.521 8.23469 168.087 8.31031 167.907 8.41199C167.963 8.22363 169.142 8.46525 169.142 8.46525C169.142 8.46525 176.623 8.72159 185.018 8.89732C193.414 9.07304 202.723 9.17409 206.373 8.79805C206.583 8.71503 207.186 8.67892 206.973 8.56C207.146 8.5531 207.325 8.5701 207.491 8.61644C207.539 8.62968 207.587 8.63699 207.634 8.64429C207.652 8.6448 207.67 8.64532 207.688 8.6399C207.694 8.64007 207.706 8.63448 207.712 8.63465L207.724 8.62906L207.73 8.62329C207.792 8.4173 207.848 8.21113 207.91 7.9992C207.854 8.18756 207.798 8.38186 207.748 8.5704C207.73 8.6411 207.736 8.6116 207.736 8.61753L207.724 8.61719L207.712 8.61684L207.688 8.61616L207.641 8.60885C207.617 8.60224 207.593 8.60155 207.569 8.589C207.533 8.5761 207.516 8.56372 207.504 8.5515C207.486 8.52132 207.522 8.49267 207.553 8.46386C207.619 8.40046 207.697 8.33147 207.376 8.26288L207.805 8.25741C207.907 8.19504 207.208 8.30556 207.34 8.19657L207.19 8.36439C206.969 8.35212 206.754 8.30441 206.553 8.2155C206.121 8.39307 205.649 8.44482 205.184 8.37212L205.411 8.36676C204.749 8.35368 205.006 8.24235 204.87 8.20874L205.019 8.21302L204.465 8.10808C204.888 8.17958 205.587 8.06313 205.223 8.05862C204.436 7.98259 205.426 8.10598 204.835 8.11276C204.465 8.10808 204.573 8.02214 204.586 7.96314L203.923 7.95006C203.948 7.86766 204.359 7.9685 204.091 7.87771L203.255 7.93681C203.102 7.72465 202.347 8.00573 201.973 7.79909C202.571 7.76875 201.92 7.72634 202.017 7.6638L200.549 7.63353C200.412 7.59992 200.937 7.57939 200.71 7.58475C200.508 7.56112 200.305 7.5731 200.107 7.61492C199.983 7.55791 199.015 7.58951 199.053 7.45404C198.057 7.33642 198.633 7.61415 197.703 7.51028C197.585 7.42378 198.437 7.50762 198.027 7.41271L197.066 7.41481C197.228 7.31855 197.425 7.28266 197.616 7.31188C195.016 7.13037 193.618 6.66283 191.236 6.71318C190.903 6.60864 191.476 6.65475 191.715 6.59632C189.989 6.68331 189.295 6.31907 187.827 6.29474L187.802 6.37714C185.758 6.07507 183.298 6.1766 180.99 6.01536L181.264 6.07665C180.864 6.13045 180.458 6.16628 180.052 6.17243C179.993 6.12918 180.328 6.00228 179.659 6.02463C179.796 6.05825 180.082 6.09614 179.999 6.12935C178.014 5.87054 173.825 5.83931 170.568 5.67457C166.158 5.64294 161.374 5.40468 157.041 5.38121C157.704 5.38835 157.421 5.58207 156.92 5.52614C155.557 5.16052 154.563 5.54157 153.169 5.28784C150.644 5.35188 148.391 5.02602 146.049 5.2556L146.002 5.15927C145.728 5.13952 145.46 5.14369 145.191 5.17752L145.197 5.14802C144.326 5.09927 143.275 5.18188 142.774 5.12595L142.743 5.23191C142.224 5.23482 142.475 5.14706 141.944 5.19709L141.956 5.14402L141.341 5.23914C141.402 5.05095 139.885 5.20328 139.468 5.1082C138.799 5.13056 137.533 5.19513 136.519 5.14228C135.78 5.03795 135.041 4.98111 134.295 4.97156C132.749 4.98061 130.547 4.98268 128.584 4.92633L128.619 5.05198L128.105 5.05505C128.112 5.02555 128.046 5.0118 128.118 5.00199C127.719 4.85995 126.936 5.03335 126.519 4.93828C126.78 5.05264 126.877 4.96042 127.169 4.96882C127.592 5.03439 127.191 5.14754 126.619 5.07768L126.631 5.04835L126.243 5.10843C126.202 5.01228 125.844 4.96046 125.804 4.86431C124.115 4.86925 122.967 5.02033 121.225 4.95251C121.405 4.84489 119.972 4.96401 120.32 4.78404C119.275 4.84309 120.491 4.93737 120.018 5.06627C119.726 5.05788 119.421 5.10849 119.368 5.04167C119.506 4.99813 119.131 4.92799 119.369 4.91111L118.671 4.92074C118.606 4.90699 118.761 4.88177 118.833 4.87195C117.411 4.96768 116.304 4.72811 115.032 4.82812C114.935 4.89659 115.539 4.85455 115.448 4.91726C114.164 5.04066 114.31 4.78959 113.115 4.87402L113.361 4.78609C112.972 4.88178 112.566 4.90574 112.167 4.84679C112.054 4.73671 112.705 4.76132 113.01 4.71071C112.574 4.70414 111.464 4.71975 111.803 4.82447C111.468 4.83862 111.135 4.80529 110.801 4.72448C110.795 4.75398 111.29 4.8038 110.985 4.84848C110.269 4.78045 109.171 4.77267 108.3 4.75953C108.306 4.73003 108.247 4.69271 108.325 4.67713C107.625 4.81732 107.699 4.57013 106.732 4.58986" fill="#003383"/>
<path opacity="0.26" d="M60.3008 5.31364L60.653 5.33254C60.6533 5.30453 60.6655 5.26992 60.827 5.24035L60.3008 5.31364Z" fill="#003383"/>
<path opacity="0.26" d="M76.9873 5.10529C77.0292 5.09955 77.0711 5.08661 77.1132 5.06648C77.0294 5.07797 76.9994 5.09132 76.9873 5.10529Z" fill="#003383"/>
<path opacity="0.26" d="M81.0425 4.8064C80.7554 4.83251 81.0121 4.87032 81.1553 4.90418C81.1614 4.88274 81.1558 4.84644 81.0425 4.8064Z" fill="#003383"/>
<path opacity="0.26" d="M50.8535 5.88729C50.9135 5.87474 50.9496 5.85403 50.9438 5.82451C50.8597 5.85819 50.8416 5.87221 50.8535 5.88729Z" fill="#003383"/>
<path opacity="0.26" d="M24.7264 6.61047L24.8338 6.62771C24.792 6.61948 24.7623 6.61166 24.7264 6.61047Z" fill="#003383"/>
<path opacity="0.26" d="M26.1742 6.77251C26.2758 6.76905 26.3713 6.76538 26.467 6.74812C26.3715 6.74499 26.2759 6.75545 26.1742 6.77251Z" fill="#003383"/>
<path opacity="0.26" d="M57.1869 5.69111C57.2766 5.68714 57.3722 5.67639 57.462 5.65147C57.3665 5.64825 57.2768 5.6592 57.1869 5.69111Z" fill="#003383"/>
<path opacity="0.26" d="M26.772 6.69489L27.1361 6.69994C27.1362 6.69328 27.1422 6.6868 27.1423 6.67347L26.772 6.69489Z" fill="#003383"/>
<path opacity="0.26" d="M24.2612 6.60406C24.4044 6.60215 24.5954 6.60167 24.7206 6.61163C24.5716 6.58855 24.4165 6.5839 24.2612 6.60406Z" fill="#003383"/>
<path opacity="0.26" d="M41.2647 6.32484L41.3066 6.31919C41.5878 6.26503 41.4084 6.28724 41.2647 6.32484Z" fill="#003383"/>
<path opacity="0.26" d="M28.3572 6.40913L28.405 6.41077L28.5128 6.37167L28.3572 6.40913Z" fill="#003383"/>
<path opacity="0.26" d="M22.6859 6.60961C22.7456 6.60461 22.8054 6.5996 22.8653 6.58053L22.6564 6.56641C22.6801 6.58831 22.6859 6.60258 22.6859 6.60961Z" fill="#003383"/>
<path opacity="0.26" d="M35.7877 6.27246C35.6854 6.3275 35.6492 6.36288 35.643 6.38466C35.7688 6.38176 35.8469 6.35519 35.7877 6.27246Z" fill="#003383"/>
</g>
</g>
</g>
</g>
</g>
<defs>
<clipPath id="clip0_3_239">
<rect width="208" height="15" fill="white"/>
</clipPath>
</defs>
</svg>
