<svg width="80" height="68" viewBox="0 0 80 68" fill="none" xmlns="http://www.w3.org/2000/svg">
<path d="M28.3344 30.0923C29.2077 30.0923 30.0453 30.4357 30.6628 31.0469C31.2803 31.6582 31.6273 32.4872 31.6273 33.3516V45.908C31.627 46.7728 31.2798 47.602 30.6619 48.2134C30.0441 48.8248 29.2062 49.1683 28.3325 49.1683H3.29475C2.42109 49.1683 1.58321 48.8248 0.965348 48.2134C0.347491 47.602 0.000253675 46.7728 0 45.908V33.3516C-7.30258e-08 32.9235 0.0852349 32.4995 0.250835 32.1039C0.416435 31.7083 0.659156 31.3489 0.965126 31.0463C1.2711 30.7436 1.63432 30.5035 2.03405 30.3398C2.43377 30.1762 2.86216 30.092 3.29475 30.0923H28.3344Z" fill="#60A16D"/>
<path d="M50.7369 26.666C51.1698 26.6659 51.5986 26.7502 51.9986 26.9142C52.3986 27.0781 52.7621 27.3185 53.0682 27.6215C53.3744 27.9245 53.6172 28.2843 53.7828 28.6803C53.9485 29.0762 54.0337 29.5006 54.0335 29.9292V42.4836C54.0334 42.9119 53.948 43.336 53.7823 43.7317C53.6165 44.1273 53.3736 44.4867 53.0674 44.7894C52.7613 45.0921 52.3979 45.3321 51.998 45.4957C51.5981 45.6593 51.1696 45.7434 50.7369 45.743H25.6962C25.2638 45.7431 24.8355 45.6589 24.436 45.4951C24.0364 45.3314 23.6733 45.0913 23.3675 44.7886C23.0618 44.4859 22.8192 44.1266 22.6538 43.7311C22.4883 43.3356 22.4033 42.9117 22.4034 42.4836V29.9292C22.403 29.5008 22.4879 29.0767 22.6532 28.6808C22.8185 28.285 23.061 27.9253 23.3668 27.6223C23.6725 27.3192 24.0357 27.0788 24.4354 26.9147C24.8351 26.7507 25.2635 26.6661 25.6962 26.666H50.7369Z" fill="#C3443E"/>
<path d="M34.9231 39.2224C34.9232 39.6507 34.838 40.075 34.6724 40.4708C34.5068 40.8665 34.2641 41.2261 33.958 41.529C33.6519 41.8319 33.2886 42.0721 32.8886 42.2359C32.4887 42.3997 32.0601 42.4839 31.6274 42.4836H18.9449C18.5122 42.4836 18.0838 42.3992 17.6842 42.2353C17.2845 42.0714 16.9213 41.8312 16.6155 41.5283C16.3096 41.2255 16.067 40.866 15.9015 40.4703C15.736 40.0746 15.6509 39.6506 15.6511 39.2224V14.4345C15.6513 13.5697 15.9986 12.7405 16.6164 12.1291C17.2343 11.5177 18.0722 11.1742 18.9458 11.1742H31.6274C32.06 11.1741 32.4885 11.2583 32.8883 11.4221C33.2881 11.5859 33.6513 11.826 33.9574 12.1287C34.2634 12.4315 34.5062 12.7909 34.6719 13.1865C34.8376 13.5822 34.9229 14.0062 34.9231 14.4345V39.2224Z" fill="#436FAE"/>
<path d="M38.3808 61.397C38.3813 61.8253 38.2965 62.2495 38.1313 62.6454C37.9661 63.0412 37.7238 63.401 37.4181 63.7041C37.1124 64.0072 36.7493 64.2478 36.3497 64.412C35.95 64.5762 35.5216 64.6608 35.0889 64.661H22.4036C21.9706 64.6609 21.542 64.5764 21.142 64.4123C20.7421 64.2482 20.3788 64.0077 20.0727 63.7046C19.7667 63.4015 19.524 63.0417 19.3584 62.6458C19.1929 62.2498 19.1077 61.8255 19.1078 61.397V36.612C19.1084 35.7471 19.4558 34.9179 20.0738 34.3065C20.6918 33.6951 21.5298 33.3517 22.4036 33.3517H35.0889C35.5213 33.3518 35.9495 33.4362 36.3489 33.6002C36.7484 33.7641 37.1113 34.0042 37.417 34.307C37.7227 34.6097 37.9651 34.9691 38.1305 35.3646C38.2959 35.7601 38.3809 36.1839 38.3808 36.612V61.397Z" fill="#EED861"/>
<path d="M78.0312 2.46321C77.9001 2.342 77.7652 2.22553 77.6236 2.11569L77.5863 2.08728C77.4533 1.98596 77.3184 1.88748 77.1778 1.79657L77.1032 1.74544C76.9673 1.66021 76.8305 1.57783 76.689 1.50302L76.6784 1.49829C76.4525 1.3817 76.2196 1.27893 75.981 1.19053L75.894 1.15928C75.7122 1.09394 75.5276 1.03713 75.3382 0.988836L75.1899 0.950956C75.0138 0.911185 74.8349 0.878989 74.6551 0.856262C74.5977 0.84774 74.5422 0.837325 74.4848 0.830696C74.2498 0.803094 74.0135 0.788868 73.7769 0.788086C73.6098 0.788086 73.4443 0.794714 73.2804 0.807971C72.8634 0.841501 72.4509 0.916691 72.0491 1.03239C71.8283 1.09556 71.6111 1.1708 71.3986 1.25776C71.0141 1.41479 70.6465 1.60957 70.3013 1.83918L56.9836 9.66181C54.1079 11.3038 53.1139 15.136 54.9947 17.8765C56.1035 19.8461 58.0953 20.9417 60.1951 20.9417C61.1901 20.9417 62.2998 20.7239 63.2938 20.0667L67.7193 17.545V61.1987C67.7193 64.5935 70.3759 67.2203 73.8046 67.2203C77.1242 67.2203 80 64.5935 80 61.1987V6.95358C80.0005 6.11147 79.826 5.27825 79.4873 4.50576C79.1486 3.73326 78.6529 3.038 78.0312 2.46321Z" fill="white"/>
</svg>
